<svg width="115" height="12" viewBox="0 0 115 12" fill="none" xmlns="http://www.w3.org/2000/svg">
<path d="M62.4644 0.243408C58.4412 0.243408 56.3573 2.71821 56.3573 6.05097C56.3573 9.39692 58.4412 11.885 62.4644 11.885C66.5009 11.885 68.5848 9.39692 68.5848 6.05097C68.591 2.71821 66.5009 0.243408 62.4644 0.243408ZM97.3402 0.243408C93.937 0.243408 92.2291 1.59632 92.2291 3.9921C92.2291 5.93885 93.3636 6.85594 95.7112 7.10652L98.323 7.3843C99.3189 7.49639 99.7741 7.87884 99.7741 8.38034C99.7741 8.94787 99.1083 9.4564 97.5056 9.4564C95.6523 9.4564 94.9066 8.98745 94.7813 8.0437H92.071C92.1963 10.5912 93.8515 11.8916 97.4064 11.8916C100.651 11.8916 102.465 10.4657 102.465 8.32081C102.465 6.45329 101.39 5.33151 99.3587 5.10057L96.7867 4.81022C95.2828 4.64531 94.907 4.26889 94.907 3.76061C94.907 3.19308 95.6785 2.68521 97.1888 2.68521C98.6398 2.68521 99.3982 3.22671 99.5366 4.03839H102.301C102.162 1.69544 100.203 0.243408 97.3402 0.243408ZM34.2236 0.507299V7.67465C34.2236 10.8686 37.0724 11.8651 39.4597 11.8651C41.8342 11.8651 44.6701 10.8686 44.6701 7.67465V0.507299H41.8473V7.35123H41.8606C41.8606 8.79005 40.9773 9.37042 39.467 9.37042C38.0028 9.37042 37.0464 8.76364 37.0464 7.35123V0.507299H34.2236ZM10.5397 0.54698L0.666626 6.6839V11.6138H0.751952L10.6515 5.45043H15.789C15.9475 5.45043 16.0926 5.57555 16.0926 5.75401C16.0926 5.89894 16.0267 5.95862 15.9478 6.00467L11.0866 8.92134C10.77 9.11267 10.6581 9.48877 10.6581 9.77254L10.651 11.6138H16.8309V0.929917C16.8309 0.725388 16.6728 0.546979 16.4354 0.546979L10.5397 0.54698ZM25.9795 0.54698L21.7381 11.6145H24.6535L25.3922 9.54172H30.1277L30.8532 11.6145H33.8671L29.5735 0.54698L25.9795 0.54698ZM45.9631 0.54698V2.94249H49.5312V11.6145H52.3473V2.94249H55.9023V0.54698L45.9631 0.54698ZM70.1212 0.54698V11.6145H75.2925C79.2565 11.6145 80.3507 10.1357 80.3507 5.99806C80.3507 2.11098 79.3025 0.54698 75.2925 0.54698H70.1212ZM81.9275 0.54698V11.6145H90.8309V9.2183H84.7502V7.21235H89.6438V4.81022H84.7502V2.94249H90.8309V0.54698L81.9275 0.54698ZM103.902 0.54698L103.916 11.6145H106.726V7.41076L110.538 11.6145H114.106L108.961 6.15017L114.106 0.54698H110.749L106.726 5.04104V0.54698L103.902 0.54698ZM62.4644 2.73151C64.5683 2.73151 65.6966 4.0182 65.6966 6.05097C65.7028 8.12979 64.5683 9.39688 62.4644 9.39688C60.3802 9.39688 59.2329 8.12302 59.2329 6.05097C59.2329 4.0182 60.3802 2.73151 62.4644 2.73151ZM27.7798 2.85056L29.303 7.18589H26.2295L27.7798 2.85056ZM72.938 2.94249H75.1801C76.9477 2.94249 77.4751 3.42417 77.4751 5.99806C77.4751 8.34744 76.8817 9.2183 75.1801 9.2183H72.938V2.94249Z" fill="#787880"/>
</svg>
