<svg width="105" height="13" viewBox="0 0 105 13" fill="none" xmlns="http://www.w3.org/2000/svg">
<path d="M68.1955 12.205H65.3147V0.44812L74.5798 0.455751C74.5798 0.455751 76.2761 0.392476 77.3552 1.45856C77.3552 1.45856 78.4566 2.37831 78.4566 4.62636V12.2032H75.5833V4.43053C75.5833 4.43053 75.6187 3.63773 75.3486 3.35951C75.3486 3.35951 75.1097 3.05732 74.6557 3.05732H68.1885L68.1945 12.2008L68.1955 12.205ZM80.4589 12.2029V1.19567V0.456899H92.0199V3.06961L83.3221 3.06893V5.06645H89.3646V7.58935H83.3221V9.59362H92.0739V12.207H80.4521L80.4589 12.2029ZM60.2946 12.2029V1.19567V0.456899H63.1633V12.207H60.2946V12.2029ZM96.1493 12.2029V3.06623H93.4414V0.453522H104.212V3.06623H99.02V12.2029H96.1513H96.1493ZM50.8203 12.2029V3.06623H48.1123V0.453522H58.8833V3.06623H53.6909V12.2029H50.8223H50.8203ZM42.1698 5.05835C42.8707 5.05294 43.2901 5.05902 43.4589 4.95624C43.4589 4.95624 43.7534 4.79336 43.7568 4.44383L43.7575 3.67535C43.7575 3.32419 43.4596 3.16293 43.4596 3.16293C43.2359 3.04138 42.8569 3.06421 41.957 3.06333H36.3683V5.05814H42.2981L42.1698 5.05835ZM43.7155 12.2029V8.19306C43.7155 7.83259 43.4142 7.68152 43.4142 7.68152C43.2783 7.59711 42.8714 7.58192 42.2723 7.58192H42.4115H36.3683V12.2023H33.4997V1.19499V0.456224H42.454C44.0005 0.460951 45.0681 0.68839 45.8035 1.40231C46.5261 2.13838 46.622 3.10135 46.626 4.10348V4.94017C46.6353 5.79172 46.1879 6.5683 45.6543 7.02075L45.7615 7.07396C45.9793 7.17944 46.0983 7.32889 46.0983 7.32889C46.5043 7.84717 46.4993 8.2932 46.4984 8.84154V12.2052H43.7156L43.7155 12.2029ZM0.334664 0.452847V1.19229V12.1996H3.20331V7.58327H11.8943V5.05902H3.20331V3.06286H13.3057V0.450146H0.333313L0.334664 0.452847Z" fill="#787880"/>
<path d="M103.243 10.1253V10.6647H103.746C103.881 10.6647 104.013 10.6276 104.033 10.4258C104.062 10.1583 103.869 10.1253 103.746 10.1253H103.243ZM103.042 9.94803H103.741C103.984 9.94803 104.219 9.99362 104.239 10.3473C104.248 10.5499 104.186 10.6233 104.033 10.7389C104.194 10.8419 104.199 10.8664 104.223 11.1382C104.239 11.3441 104.21 11.3771 104.297 11.513H104.058L104.026 11.3154C103.993 11.1297 104.083 10.8419 103.758 10.8419H103.243V11.513H103.041L103.042 9.94803ZM103.568 9.51585C102.877 9.51585 102.313 10.0797 102.318 10.7759C102.318 11.4674 102.877 12.0313 103.573 12.0279C104.265 12.0279 104.829 11.4674 104.829 10.7719C104.829 10.0797 104.264 9.51585 103.568 9.51585ZM103.573 12.1914C102.787 12.1914 102.152 11.5574 102.152 10.7719C102.149 9.98923 102.787 9.35107 103.573 9.35107C104.356 9.35107 104.994 9.98923 104.994 10.7719C104.994 11.5579 104.356 12.1887 103.573 12.1914Z" fill="#787880"/>
<path d="M29.5553 12.3198C30.4872 12.0033 31.2125 10.9301 31.3867 9.58084V9.19086H26.609V12.3202H29.5546L29.5553 12.3198ZM31.3874 3.45323V3.10039C31.2042 1.69241 30.4251 0.5829 29.4317 0.322237H26.6097V3.4529L31.3874 3.45323ZM14.5726 9.1912V9.5778C14.7456 10.9284 15.4707 12.0035 16.4053 12.3202H19.3361V9.19086L14.5726 9.1912ZM16.5275 0.324601C15.5355 0.585399 14.7542 1.69545 14.5726 3.10546V3.4558H19.3361V0.325141L16.5275 0.324601ZM31.3907 4.75858H26.613V7.88923H31.3907V4.75858ZM20.6401 12.3219H25.3138V9.19255H20.6401V12.3219ZM25.3138 0.321899H20.6401V3.45256H25.3138V0.321899ZM14.5766 7.88518H19.3401V4.75452H14.5766V7.88518Z" fill="#787880"/>
</svg>
