<svg width="99" height="24" viewBox="0 0 99 24" fill="none" xmlns="http://www.w3.org/2000/svg">
<path d="M60.2538 18.2167H60.2211C60.2374 18.2167 60.2374 18.2321 60.2538 18.2321H60.2702L60.2538 18.2167ZM60.2538 18.2321C60.1228 18.2321 59.7791 18.2939 59.419 18.2939C58.2896 18.2939 57.8968 17.7998 57.8968 17.1514V12.8596H60.2047C60.3356 12.8596 60.4338 12.7515 60.4338 12.5971V10.2659C60.4338 10.1424 60.3193 10.0344 60.2047 10.0344H57.8968V7.13195C57.8968 7.02388 57.8149 6.96212 57.684 6.96212H54.5412C54.4103 6.96212 54.3448 7.03932 54.3448 7.13195V10.1115C54.3448 10.1115 52.7571 10.4821 52.6589 10.4975C52.5443 10.5284 52.4788 10.621 52.4788 10.7291V12.5971C52.4788 12.7515 52.5934 12.8596 52.7244 12.8596H54.3285V17.3676C54.3285 20.7177 56.8001 21.0573 58.486 21.0573C59.2553 21.0573 60.1883 20.8257 60.3356 20.7486C60.4175 20.7177 60.4666 20.625 60.4666 20.5324V18.4791C60.4666 18.3556 60.3847 18.263 60.2538 18.2321ZM94.7255 15.2216C94.7255 12.7361 93.6615 12.4119 92.5485 12.5199C91.681 12.5662 90.9771 12.9831 90.9771 12.9831V17.8153C90.9771 17.8153 91.681 18.2784 92.7449 18.3093C94.2344 18.3402 94.7255 17.8307 94.7255 15.2216ZM98.261 15.0055C98.261 19.7142 96.6406 21.0573 93.8252 21.0573C91.4354 21.0573 90.1587 19.9149 90.1587 19.9149C90.1587 19.9149 90.1096 20.5479 90.0278 20.625C89.9787 20.7022 89.9132 20.7331 89.815 20.7331H87.6707C87.5234 20.7331 87.3925 20.625 87.3925 20.5015L87.4252 5.26391C87.4252 5.1404 87.5398 5.03233 87.6707 5.03233H90.7643C90.8953 5.03233 91.0099 5.1404 91.0099 5.26391V10.4357C91.0099 10.4357 92.2048 9.71015 93.9562 9.71015L93.9398 9.67927C95.6748 9.67927 98.261 10.2968 98.261 15.0055ZM85.5756 10.0498H82.5147C82.351 10.0498 82.2692 10.1579 82.2692 10.3122V17.769C82.2692 17.769 81.4671 18.2939 80.3705 18.2939C79.2901 18.2939 78.9628 17.8307 78.9628 16.7963V10.2814C78.9628 10.1579 78.8482 10.0498 78.7173 10.0498H75.6073C75.4763 10.0498 75.3618 10.1579 75.3618 10.2814V17.3058C75.3618 20.3163 77.1459 21.0728 79.6011 21.0728C81.6308 21.0728 83.2677 20.023 83.2677 20.023C83.2677 20.023 83.3495 20.5633 83.3822 20.6405C83.415 20.7022 83.5132 20.764 83.6114 20.764H85.5592C85.7229 20.764 85.8047 20.6559 85.8047 20.5324L85.8375 10.2814C85.8538 10.1579 85.7229 10.0498 85.5756 10.0498ZM51.1039 10.0344H48.0103C47.8793 10.0344 47.7648 10.1579 47.7648 10.3122V20.378C47.7648 20.6559 47.9612 20.7486 48.2067 20.7486H51.0057C51.3003 20.7486 51.3658 20.625 51.3658 20.378V10.2659C51.3494 10.1424 51.2348 10.0344 51.1039 10.0344ZM49.5653 5.38741C48.4522 5.38741 47.552 6.22109 47.552 7.28633C47.552 8.33614 48.4359 9.18524 49.5653 9.18524C50.662 9.18524 51.5458 8.35157 51.5458 7.28633C51.5458 6.23652 50.662 5.38741 49.5653 5.38741ZM73.5612 5.04777H70.484C70.353 5.04777 70.2385 5.15584 70.2385 5.27935V10.8835H65.4262V5.27935C65.4262 5.15584 65.3116 5.04777 65.1807 5.04777H62.087C61.9561 5.04777 61.8415 5.15584 61.8415 5.27935V20.517C61.8415 20.6405 61.9725 20.7486 62.087 20.7486H65.1807C65.3116 20.7486 65.4262 20.6405 65.4262 20.517V14.002H70.2385L70.2057 20.517C70.2057 20.6405 70.3203 20.7486 70.4513 20.7486H73.5449C73.6758 20.7486 73.7904 20.6405 73.7904 20.517V5.27935C73.8068 5.15584 73.6922 5.04777 73.5612 5.04777ZM46.1116 11.7943V19.6679C46.1116 19.7142 46.0952 19.8223 46.0297 19.8377C46.0297 19.8377 44.2128 21.0573 41.2174 21.0573C37.6 21.0573 33.2952 19.9921 33.2952 12.9368C33.2952 5.88144 37.0435 4.43024 40.71 4.44568C43.8855 4.44568 45.1622 5.12496 45.3586 5.24847C45.4077 5.32566 45.4405 5.37198 45.4405 5.43373L44.8512 7.88842C44.8512 8.01193 44.7203 8.16631 44.5566 8.12C44.0328 7.96562 43.2471 7.67229 41.3975 7.67229C39.2532 7.67229 36.9617 8.2435 36.9617 12.7978C36.9617 17.3367 39.1387 17.877 40.71 17.877C42.0522 17.877 42.5269 17.7226 42.5269 17.7226V14.5732H40.3827C40.219 14.5732 40.1044 14.4652 40.1044 14.3416V11.8098C40.1044 11.6863 40.219 11.5782 40.3827 11.5782H45.8333C45.997 11.5627 46.1116 11.6708 46.1116 11.7943Z" fill="#787880"/>
<path fill-rule="evenodd" clip-rule="evenodd" d="M12.5871 0.486816C5.63283 0.486816 0 5.75586 0 12.2611C0 17.4683 3.60104 21.872 8.60616 23.4327C9.23387 23.5254 9.48165 23.1854 9.48165 22.8764C9.48165 22.5983 9.46513 21.6712 9.46513 20.6823C6.31009 21.2231 5.48416 19.956 5.23638 19.307C5.08771 18.9671 4.47653 17.9164 3.94793 17.6383C3.50193 17.4219 2.87423 16.8657 3.93141 16.8502C4.92253 16.8348 5.63283 17.7001 5.86409 18.0555C7.00387 19.8324 8.80439 19.3379 9.5312 19.0289C9.64683 18.2718 9.9772 17.7464 10.3406 17.4528C7.54898 17.1593 4.60868 16.1394 4.60868 11.643C4.60868 10.3605 5.10423 9.29432 5.89712 8.47537C5.76497 8.18179 5.33549 6.97655 6.02927 5.35412C6.02927 5.35412 7.08646 5.04508 9.49817 6.55936C10.5058 6.29668 11.5795 6.15761 12.6367 6.15761C13.7104 6.15761 14.7676 6.29668 15.7752 6.55936C18.1869 5.02963 19.2276 5.35412 19.2276 5.35412C19.9214 6.97655 19.4754 8.18179 19.3597 8.47537C20.1691 9.29432 20.6482 10.345 20.6482 11.643C20.6482 16.1549 17.7079 17.1593 14.8997 17.4528C15.3623 17.8237 15.7587 18.519 15.7587 19.6315C15.7587 21.2076 15.7422 22.4747 15.7422 22.861C15.7422 23.17 15.9734 23.5408 16.6011 23.4172C21.7219 21.7948 25.1743 17.2983 25.1743 12.2456C25.1743 5.75586 19.5414 0.486816 12.5871 0.486816Z" fill="#787880"/>
</svg>
