<svg width="113" height="25" viewBox="0 0 113 25" fill="none" xmlns="http://www.w3.org/2000/svg">
<path d="M112.246 11.1265V9.21176H109.806V6.23514L109.724 6.25979L107.432 6.9431L107.387 6.95647V9.21187H103.769V7.95542C103.769 7.37037 103.903 6.92266 104.168 6.62409C104.431 6.32909 104.806 6.17912 105.286 6.17912C105.63 6.17912 105.987 6.25821 106.346 6.41419L106.436 6.45336V4.43694L106.394 4.42177C106.059 4.30444 105.603 4.24536 105.039 4.24536C104.327 4.24536 103.68 4.39628 103.116 4.69539C102.552 4.99491 102.108 5.42251 101.797 5.96616C101.487 6.50918 101.33 7.13636 101.33 7.8304V9.21176H99.6304V11.1265H101.33V19.1927H103.769V11.1265H107.387V16.2524C107.387 18.3635 108.409 19.4333 110.424 19.4333C110.755 19.4333 111.104 19.3955 111.46 19.3215C111.822 19.2455 112.069 19.1695 112.214 19.0884L112.246 19.0699V17.1375L112.147 17.2014C112.015 17.2874 111.85 17.3576 111.657 17.4099C111.463 17.463 111.3 17.4897 111.175 17.4897C110.703 17.4897 110.353 17.3657 110.137 17.1211C109.917 16.8742 109.806 16.4425 109.806 15.8386V11.1265H112.246ZM94.1831 17.49C93.2977 17.49 92.5996 17.204 92.1077 16.6405C91.6128 16.0742 91.362 15.2668 91.362 14.241C91.362 13.1827 91.6128 12.3544 92.1079 11.7781C92.6002 11.2055 93.2915 10.915 94.1632 10.915C95.009 10.915 95.6823 11.1925 96.1646 11.7403C96.6493 12.2909 96.8953 13.1126 96.8953 14.1832C96.8953 15.2671 96.664 16.0996 96.2078 16.6565C95.7548 17.2092 95.0736 17.49 94.1831 17.49ZM94.2915 8.97132C92.6023 8.97132 91.2607 9.45357 90.3041 10.4047C89.3481 11.3559 88.8635 12.6723 88.8635 14.3176C88.8635 15.8803 89.3366 17.1373 90.2698 18.053C91.2031 18.9691 92.4732 19.4331 94.0445 19.4331C95.6818 19.4331 96.9968 18.9441 97.9529 17.9798C98.909 17.0166 99.3934 15.7127 99.3934 14.1058C99.3934 12.5187 98.9389 11.2523 98.042 10.3427C97.1448 9.43262 95.8827 8.97132 94.2915 8.97132ZM84.9306 8.97132C83.7816 8.97132 82.8311 9.25768 82.1051 9.82229C81.3746 10.3903 81.004 11.1352 81.004 12.0366C81.004 12.5052 81.084 12.9214 81.2414 13.2744C81.3998 13.6286 81.6448 13.9405 81.9704 14.2022C82.2935 14.4618 82.7922 14.7337 83.4531 15.0104C84.0087 15.2331 84.423 15.4216 84.6862 15.5701C84.9434 15.7156 85.126 15.8619 85.2291 16.0044C85.3293 16.1438 85.3801 16.3347 85.3801 16.5702C85.3801 17.2407 84.8647 17.567 83.8043 17.567C83.4109 17.567 82.9622 17.487 82.4707 17.3292C81.9827 17.1738 81.5221 16.9463 81.1051 16.6545L81.0038 16.5837V18.872L81.041 18.8889C81.3861 19.0441 81.8213 19.175 82.3342 19.278C82.8461 19.3811 83.3112 19.4336 83.7153 19.4336C84.9621 19.4336 85.9662 19.1458 86.6988 18.5778C87.4361 18.006 87.8098 17.2435 87.8098 16.3109C87.8098 15.6381 87.6086 15.0612 87.2121 14.5959C86.8184 14.1344 86.1349 13.7107 85.1817 13.3361C84.4222 13.0391 83.9357 12.7926 83.735 12.6033C83.5415 12.4205 83.4432 12.1619 83.4432 11.8345C83.4432 11.5443 83.5645 11.3117 83.8134 11.1234C84.0643 10.9341 84.4136 10.8379 84.8515 10.8379C85.258 10.8379 85.6738 10.9004 86.0873 11.023C86.5006 11.1456 86.8636 11.3098 87.1665 11.5107L87.2662 11.577V9.40639L87.2279 9.39038C86.9484 9.27358 86.5798 9.17364 86.1321 9.09254C85.6864 9.01197 85.2822 8.97132 84.9306 8.97132ZM74.6449 17.49C73.7598 17.49 73.0615 17.204 72.5697 16.6405C72.0746 16.0742 71.8243 15.2671 71.8243 14.241C71.8243 13.1827 72.075 12.3544 72.5702 11.7781C73.062 11.2055 73.7533 10.915 74.6254 10.915C75.4709 10.915 76.1442 11.1925 76.6266 11.7403C77.1114 12.2909 77.3573 13.1126 77.3573 14.1832C77.3573 15.2671 77.1258 16.0996 76.6697 16.6565C76.2167 17.2092 75.5358 17.49 74.6449 17.49ZM74.7537 8.97132C73.0641 8.97132 71.7224 9.45357 70.7663 10.4047C69.8103 11.3559 69.3253 12.6723 69.3253 14.3176C69.3253 15.881 69.7988 17.1373 70.732 18.053C71.6653 18.9691 72.9353 19.4331 74.5066 19.4331C76.1437 19.4331 77.459 18.9441 78.4151 17.9798C79.371 17.0166 79.8556 15.7127 79.8556 14.1058C79.8556 12.5187 79.4009 11.2523 78.5039 10.3427C77.6064 9.43262 76.3446 8.97132 74.7537 8.97132ZM65.6226 10.9403V9.21176H63.213V19.1925H65.6226V14.087C65.6226 13.2188 65.8246 12.5056 66.2232 11.9669C66.6168 11.4346 67.1412 11.1649 67.7816 11.1649C67.9986 11.1649 68.2423 11.1998 68.5061 11.2687C68.7673 11.3373 68.9564 11.4118 69.068 11.4901L69.1693 11.5616V9.1947L69.1302 9.17838C68.9058 9.08549 68.5884 9.03862 68.1867 9.03862C67.5812 9.03862 67.0393 9.22819 66.5752 9.60144C66.1678 9.92951 65.8733 10.3793 65.6482 10.9403H65.6226ZM58.8979 8.97132C57.7924 8.97132 56.8064 9.20228 55.9678 9.65758C55.1273 10.1139 54.4774 10.7654 54.0352 11.5939C53.5949 12.4203 53.3714 13.3856 53.3714 14.4622C53.3714 15.4052 53.5881 16.2706 54.0165 17.0333C54.4451 17.7973 55.0517 18.395 55.8196 18.8095C56.5864 19.2236 57.4726 19.4335 58.4539 19.4335C59.599 19.4335 60.5767 19.2104 61.3605 18.7705L61.3922 18.7528V16.6019L61.2909 16.6739C60.9358 16.9259 60.539 17.1271 60.1121 17.272C59.6862 17.4168 59.2979 17.49 58.9575 17.49C58.012 17.49 57.253 17.2018 56.702 16.6335C56.1499 16.0644 55.8699 15.2654 55.8699 14.2599C55.8699 13.2481 56.1619 12.4285 56.7373 11.8238C57.3109 11.2208 58.0713 10.915 58.9972 10.915C59.7892 10.915 60.561 11.1763 61.2911 11.6923L61.3922 11.7638V9.49749L61.3596 9.47959C61.0848 9.32972 60.71 9.20597 60.2448 9.11213C59.7815 9.0185 59.3284 8.97132 58.8979 8.97132ZM51.7119 9.21187H49.3023V19.1925H51.7119V9.21187ZM50.5317 4.96005C50.1352 4.96005 49.7893 5.0916 49.5051 5.35226C49.2197 5.61366 49.075 5.94278 49.075 6.3312C49.075 6.7135 49.218 7.03662 49.5007 7.29107C49.7815 7.54478 50.1285 7.67338 50.5319 7.67338C50.9351 7.67338 51.2834 7.54478 51.5676 7.29149C51.8536 7.03662 51.9987 6.71361 51.9987 6.3312C51.9987 5.95637 51.8575 5.63062 51.5794 5.36279C51.3015 5.09549 50.9489 4.96005 50.5317 4.96005ZM44.5197 8.47548V19.1925H46.9788V5.26558H43.5753L39.2493 15.6101L35.0511 5.26558H31.5091V19.1924H33.82V8.47443H33.8993L38.3325 19.1925H40.0764L44.4404 8.47548H44.5197Z" fill="#787880"/>
<path d="M11.5246 11.4398H0.333328V0.248535H11.5246V11.4398Z" fill="#787880"/>
<path d="M24.3147 11.4398H13.1234V0.248535H24.3147V11.4398Z" fill="#787880"/>
<path d="M11.5246 24.2299H0.333328V13.0386H11.5246V24.2299Z" fill="#787880"/>
<path d="M24.3147 24.2299H13.1234V13.0386H24.3147V24.2299Z" fill="#787880"/>
</svg>
