<svg width="1428" height="335" viewBox="0 0 1428 335" fill="none" xmlns="http://www.w3.org/2000/svg">
<path d="M97.3438 118.828L70.4297 244.082C79.401 219.652 88.0273 198.88 96.3086 181.766C104.59 164.513 114.458 150.09 125.914 138.496C137.508 126.764 150.482 120.898 164.836 120.898C169.667 120.898 173.669 121.174 176.844 121.727L166.492 171.414C158.901 170.034 152.69 169.344 147.859 169.344C130.607 169.344 115.977 176.659 103.969 191.289C91.9609 205.919 82.5755 223.034 75.8125 242.633C69.0495 262.232 62.7695 284.453 56.9727 309.297L52.2109 330H0.453125L33.5781 175.555C34.5443 170.724 35.0273 167.342 35.0273 165.41C35.0273 161.546 33.9922 158.647 31.9219 156.715C29.8516 154.783 26.125 152.919 20.7422 151.125L10.3906 147.605L11.4258 143.051L97.3438 118.828ZM147.637 248.637C147.637 228.624 152.191 208.611 161.301 188.598C170.41 168.585 184.005 151.953 202.086 138.703C220.167 125.453 241.974 118.828 267.508 118.828C280.758 118.828 292.352 120.691 302.289 124.418C312.365 128.145 320.094 133.458 325.477 140.359C330.997 147.122 333.758 154.921 333.758 163.754C333.758 181.421 322.578 196.12 300.219 207.852C277.997 219.445 244.665 227.451 200.223 231.867C200.085 233.247 200.016 235.249 200.016 237.871C200.016 258.712 204.708 274.516 214.094 285.281C223.479 295.909 236.729 301.223 253.844 301.223C267.646 301.223 279.378 297.91 289.039 291.285C298.839 284.66 306.154 275.137 310.984 262.715L315.332 264.164C311.743 277.828 306.085 289.974 298.355 300.602C290.764 311.229 281.172 319.579 269.578 325.652C258.122 331.725 245.079 334.762 230.449 334.762C215.681 334.762 202.017 331.587 189.457 325.238C176.897 318.751 166.753 309.021 159.023 296.047C151.432 283.073 147.637 267.27 147.637 248.637ZM200.43 227.727C228.862 222.758 249.358 213.993 261.918 201.434C274.478 188.874 280.758 173.208 280.758 154.438C280.758 134.01 273.788 123.797 259.848 123.797C249.496 123.797 239.973 129.18 231.277 139.945C222.582 150.573 215.543 163.961 210.16 180.109C204.777 196.258 201.534 212.13 200.43 227.727ZM486.516 118.828C498.799 118.828 510.807 120.691 522.539 124.418C534.271 128.145 543.794 133.527 551.109 140.566C558.562 147.467 562.289 155.473 562.289 164.582C562.289 170.931 560.495 176.245 556.906 180.523C553.456 184.802 548.28 186.941 541.379 186.941C536.134 186.941 531.855 185.63 528.543 183.008C525.23 180.385 522.677 177.142 520.883 173.277C519.089 169.275 517.156 164.03 515.086 157.543C512.602 150.09 510.186 144.155 507.84 139.738C505.632 135.184 502.319 131.319 497.902 128.145C493.624 124.97 487.965 123.383 480.926 123.383C470.574 123.383 462.638 126.281 457.117 132.078C451.596 137.737 448.836 145.19 448.836 154.438C448.836 162.443 450.906 169.344 455.047 175.141C459.326 180.799 464.57 185.561 470.781 189.426C476.992 193.152 485.48 197.569 496.246 202.676C508.806 208.611 518.812 214.062 526.266 219.031C533.857 223.862 540.275 230.28 545.52 238.285C550.902 246.29 553.594 256.159 553.594 267.891C553.594 280.727 550.281 292.251 543.656 302.465C537.169 312.54 528.06 320.477 516.328 326.273C504.596 331.932 491.139 334.762 475.957 334.762C463.535 334.762 451.113 332.898 438.691 329.172C426.408 325.307 416.263 319.855 408.258 312.816C400.253 305.777 396.25 297.703 396.25 288.594C396.25 282.659 397.975 277.621 401.426 273.48C405.014 269.34 410.121 267.27 416.746 267.27C421.715 267.27 425.786 268.512 428.961 270.996C432.135 273.342 434.62 276.379 436.414 280.105C438.346 283.832 440.417 288.801 442.625 295.012C445.385 302.603 448.008 308.745 450.492 313.438C453.115 317.992 456.841 321.926 461.672 325.238C466.641 328.413 472.99 330 480.719 330C488.586 330 495.625 328.551 501.836 325.652C508.185 322.616 513.154 318.406 516.742 313.023C520.469 307.641 522.332 301.43 522.332 294.391C522.332 286.799 520.124 280.174 515.707 274.516C511.428 268.857 506.046 264.095 499.559 260.23C493.072 256.228 484.307 251.535 473.266 246.152C460.016 239.665 449.388 233.868 441.383 228.762C433.378 223.655 426.546 217.099 420.887 209.094C415.366 200.951 412.605 191.082 412.605 179.488C412.605 167.204 415.849 156.508 422.336 147.398C428.823 138.151 437.656 131.112 448.836 126.281C460.016 121.312 472.576 118.828 486.516 118.828ZM572.004 128.559L573.246 122.969H600.988L612.582 68.3125L667.445 53.6133L652.539 122.969H701.812L700.57 128.559H651.504L620.656 274.102C617.896 286.385 616.516 295.771 616.516 302.258C616.516 313.576 620.104 319.234 627.281 319.234C634.872 319.234 642.671 313.576 650.676 302.258C658.819 290.94 665.651 277.345 671.172 261.473L676.348 263.336C670.413 277.276 664.478 289.215 658.543 299.152C652.608 309.09 645.155 317.509 636.184 324.41C627.212 331.311 616.654 334.762 604.508 334.762C579.802 334.762 567.449 321.098 567.449 293.77C567.449 285.626 568.553 276.31 570.762 265.82L599.953 128.559H572.004ZM892.473 122.969L857.277 285.074C855.069 294.874 853.965 302.189 853.965 307.02C853.965 315.577 856.794 319.855 862.453 319.855C868.802 319.855 875.565 314.956 882.742 305.156C889.919 295.219 896.475 282.659 902.41 267.477L907.793 269.547C902.134 282.521 896.337 293.632 890.402 302.879C884.605 312.126 877.428 319.786 868.871 325.859C860.452 331.794 850.514 334.762 839.059 334.762C816.561 334.762 805.312 322.823 805.312 298.945C805.312 291.906 806.348 283.556 808.418 273.895L824.359 201.641C814.56 229.659 804.76 253.26 794.961 272.445C785.299 291.492 774.189 306.674 761.629 317.992C749.069 329.172 734.784 334.762 718.773 334.762C705.661 334.762 696.345 331.035 690.824 323.582C685.303 316.129 682.543 305.984 682.543 293.148C682.543 283.073 684.13 270.582 687.305 255.676L704.281 175.555C705.109 171.552 705.523 168.24 705.523 165.617C705.523 161.615 704.488 158.647 702.418 156.715C700.348 154.783 696.69 152.919 691.445 151.125L681.094 147.605L682.129 143.051L768.047 118.828L738.234 258.988C736.716 266.579 735.543 272.79 734.715 277.621C733.887 282.452 733.473 286.868 733.473 290.871C733.473 296.53 734.439 300.947 736.371 304.121C738.441 307.296 741.823 308.883 746.516 308.883C757.833 308.883 769.496 299.911 781.504 281.969C793.512 263.888 804.553 241.322 814.629 214.27C824.704 187.079 832.572 160.234 838.23 133.734L840.715 122.969H892.473ZM1079.41 284.453C1077.34 293.562 1076.3 300.878 1076.3 306.398C1076.3 315.37 1079.06 319.855 1084.58 319.855C1090.38 319.855 1096.87 315.232 1104.04 305.984C1111.22 296.737 1117.91 283.901 1124.12 267.477L1129.51 269.547C1123.99 282.245 1118.26 293.286 1112.32 302.672C1106.53 311.919 1099.35 319.579 1090.79 325.652C1082.37 331.725 1072.51 334.762 1061.19 334.762C1049.87 334.762 1041.38 331.863 1035.72 326.066C1030.06 320.27 1027.23 311.85 1027.23 300.809C1027.23 298.048 1027.44 295.15 1027.86 292.113C1019.85 304.949 1009.71 315.301 997.422 323.168C985.276 330.897 972.44 334.762 958.914 334.762C946.63 334.762 936.072 331.449 927.238 324.824C918.543 318.061 911.918 308.883 907.363 297.289C902.947 285.695 900.738 272.721 900.738 258.367C900.738 236.698 905.5 215.029 915.023 193.359C924.685 171.69 938.073 153.885 955.188 139.945C972.44 125.867 991.694 118.828 1012.95 118.828C1035.17 118.828 1050.01 127.247 1057.46 144.086L1075.68 57.5469C1076.65 52.7161 1077.13 49.3346 1077.13 47.4023C1077.13 43.5378 1076.09 40.6393 1074.02 38.707C1071.95 36.7747 1068.3 34.9115 1063.05 33.1172L1052.7 29.5977L1053.73 25.043L1139.65 0.820312L1079.41 284.453ZM956.844 254.02C956.844 270.72 959.88 284.039 965.953 293.977C972.026 303.776 980.376 308.676 991.004 308.676C1003.56 308.676 1015.64 301.154 1027.23 286.109L1045.25 200.605C1047.45 189.84 1048.56 179.557 1048.56 169.758C1048.56 156.508 1046.49 145.742 1042.35 137.461C1038.21 129.042 1031.79 124.832 1023.09 124.832C1011.91 124.832 1001.22 131.802 991.004 145.742C980.79 159.682 972.509 176.866 966.16 197.293C959.949 217.582 956.844 236.491 956.844 254.02ZM1202.16 10.1367C1212.37 10.1367 1220.52 13.0352 1226.59 18.832C1232.8 24.6289 1235.91 32.2201 1235.91 41.6055C1235.91 50.9909 1232.8 58.651 1226.59 64.5859C1220.52 70.3828 1212.44 73.2812 1202.37 73.2812C1195.6 73.2812 1189.6 71.901 1184.36 69.1406C1179.25 66.3802 1175.25 62.5846 1172.35 57.7539C1169.45 52.9232 1168 47.5404 1168 41.6055C1168 32.4961 1171.11 24.974 1177.32 19.0391C1183.67 13.1042 1191.95 10.1367 1202.16 10.1367ZM1128.87 143.051L1214.79 118.828L1179.39 285.074C1177.59 293.493 1176.7 300.395 1176.7 305.777C1176.7 315.163 1179.59 319.855 1185.39 319.855C1191.6 319.855 1198.09 314.956 1204.85 305.156C1211.75 295.219 1218.17 282.521 1224.11 267.062L1229.7 269.547C1224.04 282.521 1218.24 293.632 1212.3 302.879C1206.51 312.126 1199.33 319.786 1190.77 325.859C1182.35 331.794 1172.49 334.762 1161.17 334.762C1138.39 334.762 1127.01 322.685 1127.01 298.531C1127.01 291.078 1127.97 282.866 1129.91 273.895L1151.02 175.555C1151.85 171.552 1152.27 168.24 1152.27 165.617C1152.27 161.615 1151.23 158.647 1149.16 156.715C1147.09 154.783 1143.43 152.919 1138.19 151.125L1127.84 147.605L1128.87 143.051ZM1340.23 118.828C1357.35 118.828 1372.46 122.624 1385.57 130.215C1398.82 137.668 1409.11 148.365 1416.42 162.305C1423.74 176.107 1427.39 192.255 1427.39 210.75C1427.39 230.901 1423.05 249.948 1414.35 267.891C1405.79 285.833 1393.92 300.671 1378.74 312.402C1369.08 319.579 1358.59 325.1 1347.27 328.965C1336.09 332.829 1324.5 334.762 1312.49 334.762C1295.38 334.762 1280.2 331.035 1266.95 323.582C1253.83 315.991 1243.62 305.294 1236.3 291.492C1228.99 277.552 1225.33 261.335 1225.33 242.84C1225.33 222.689 1229.61 203.642 1238.17 185.699C1246.73 167.757 1258.66 152.988 1273.98 141.395C1283.51 134.079 1293.86 128.49 1305.04 124.625C1316.36 120.76 1328.09 118.828 1340.23 118.828ZM1280.82 264.992C1280.82 286.938 1283.78 303.224 1289.72 313.852C1295.65 324.341 1303.38 329.586 1312.91 329.586C1319.53 329.586 1325.88 327.102 1331.95 322.133C1338.03 317.026 1343.62 309.435 1348.72 299.359C1355.76 285.557 1361.35 268.719 1365.49 248.844C1369.63 228.831 1371.7 208.749 1371.7 188.598C1371.7 166.652 1368.74 150.435 1362.8 139.945C1357 129.318 1349.27 124.004 1339.61 124.004C1333.13 124.004 1326.85 126.557 1320.77 131.664C1314.7 136.771 1309.04 144.362 1303.8 154.438C1296.9 168.102 1291.31 185.009 1287.03 205.16C1282.89 225.173 1280.82 245.117 1280.82 264.992Z" fill="url(#paint0_linear_11385_2613)"/>
<defs>
<linearGradient id="paint0_linear_11385_2613" x1="756.268" y1="-140.661" x2="1167.29" y2="1029.08" gradientUnits="userSpaceOnUse">
<stop/>
<stop offset="1" stop-color="#3C3C43" stop-opacity="0.3"/>
</linearGradient>
</defs>
</svg>
