<svg width="20" height="14" viewBox="0 0 20 14" fill="none" xmlns="http://www.w3.org/2000/svg">
<path d="M19.8663 8.53491L19.983 8.60491C19.1663 11.5216 17.4863 13.3416 15.0363 13.3416C12.4696 13.3416 10.9062 11.4749 10.9062 8.76824C10.9062 5.08155 13.0529 0.974854 16.7396 0.974854C18.653 0.974854 19.703 1.97819 19.703 3.54154C19.703 6.73823 15.9696 7.74157 13.4496 8.1849C13.8696 9.72492 14.8729 10.9149 16.5296 10.9149C18.2096 10.9149 19.2596 10.0049 19.8663 8.53491ZM15.3396 1.79153C14.4996 1.81486 13.2163 2.8182 13.2163 6.38822C13.2163 6.80823 13.2629 7.25156 13.3329 7.64823C15.8063 7.15823 16.763 5.89822 16.763 4.12487C16.763 3.14487 16.5763 1.76819 15.3396 1.79153Z" fill="#0A0A0A"/>
<path d="M9.88601 0.974854C10.8893 0.974854 11.5427 1.65152 11.5427 2.7482C11.5427 3.96154 10.7493 4.91821 9.48934 4.91821C8.64933 4.91821 8.15933 4.61488 7.90266 4.24154C8.43933 3.82154 8.556 3.49487 8.556 3.19154C8.556 2.8182 8.36933 2.72487 8.22933 2.72487C7.83266 2.72487 7.52932 3.19154 5.80264 7.29823L4.75264 13.1549H1.43928L3.04929 3.82154C3.11929 3.40154 2.83929 3.07487 2.37262 3.07487C1.32261 3.07487 0.365939 5.01155 0.202605 5.12822L0.0859375 5.10488C0.762609 3.77487 1.95262 0.974854 4.63597 0.974854C6.03598 0.974854 6.75932 1.81486 6.50265 3.33154L6.03598 5.99156C7.43599 1.60486 8.486 0.974854 9.88601 0.974854Z" fill="#0A0A0A"/>
</svg>
