<svg width="40" height="40" viewBox="0 0 40 40" fill="none" xmlns="http://www.w3.org/2000/svg">
<g clip-path="url(#clip0_11581_1893)">
<path d="M11.6826 7.5918L8.69922 21.4761C9.69368 18.7681 10.6499 16.4655 11.5679 14.5684C12.4858 12.6559 13.5798 11.0571 14.8496 9.77197C16.1348 8.47152 17.5729 7.82129 19.1641 7.82129C19.6995 7.82129 20.1432 7.85189 20.4951 7.91309L19.3477 13.4209C18.5062 13.2679 17.8177 13.1914 17.2822 13.1914C15.3698 13.1914 13.748 14.0023 12.417 15.624C11.0859 17.2458 10.0456 19.1429 9.2959 21.3154C8.54622 23.488 7.8501 25.9512 7.20752 28.7051L6.67969 31H0.942383L4.61426 13.8799C4.72135 13.3444 4.7749 12.9696 4.7749 12.7554C4.7749 12.327 4.66016 12.0057 4.43066 11.7915C4.20117 11.5773 3.78809 11.3708 3.19141 11.1719L2.04395 10.7817L2.15869 10.2769L11.6826 7.5918ZM18.4722 21.981C18.4722 19.7625 18.9771 17.5441 19.9868 15.3257C20.9966 13.1073 22.5036 11.2637 24.5078 9.79492C26.512 8.32617 28.9294 7.5918 31.7598 7.5918C33.2285 7.5918 34.5137 7.79834 35.6152 8.21143C36.7321 8.62451 37.5889 9.21354 38.1855 9.97852C38.7975 10.7282 39.1035 11.5926 39.1035 12.5718C39.1035 14.5301 37.8643 16.1595 35.3857 17.46C32.9225 18.7451 29.2277 19.6325 24.3013 20.1221C24.286 20.2751 24.2783 20.4969 24.2783 20.7876C24.2783 23.0978 24.7985 24.8496 25.8389 26.043C26.8792 27.221 28.348 27.8101 30.2451 27.8101C31.7751 27.8101 33.0755 27.4429 34.1465 26.7085C35.2327 25.9741 36.0436 24.9185 36.5791 23.5415L37.061 23.7021C36.6632 25.2168 36.036 26.5632 35.1792 27.7412C34.3377 28.9193 33.2744 29.8449 31.9893 30.5181C30.7194 31.1912 29.2736 31.5278 27.6519 31.5278C26.0148 31.5278 24.5002 31.1759 23.1079 30.4722C21.7157 29.7531 20.5911 28.6745 19.7344 27.2363C18.8929 25.7982 18.4722 24.0464 18.4722 21.981ZM24.3242 19.6631C27.4759 19.1123 29.7479 18.1408 31.1401 16.7485C32.5324 15.3563 33.2285 13.6198 33.2285 11.5391C33.2285 9.27474 32.4559 8.14258 30.9106 8.14258C29.7632 8.14258 28.7075 8.73926 27.7437 9.93262C26.7798 11.1107 25.9995 12.5947 25.4028 14.3848C24.8062 16.1748 24.4466 17.9342 24.3242 19.6631Z" fill="#0E0E0E"/>
</g>
<defs>
<clipPath id="clip0_11581_1893">
<rect width="40" height="40" fill="white"/>
</clipPath>
</defs>
</svg>
