<svg width="16" height="16" viewBox="0 0 16 16" fill="none" xmlns="http://www.w3.org/2000/svg">
<path d="M10.4662 5.15267C10.3664 4.89518 10.0768 4.76734 9.81933 4.86712C9.56185 4.96689 9.434 5.25652 9.53378 5.514L10.4662 5.15267ZM10.0361 5.42658L9.56992 5.60724L9.60054 5.68628L9.65551 5.75081L10.0361 5.42658ZM10.6914 6.20384L10.3062 6.52264L10.6914 6.20384ZM11.3477 7.52942L11.8421 7.45463L11.3477 7.52942ZM11.2907 8.25554L10.8155 8.0999L11.2907 8.25554ZM11.2256 8.61334L11.1322 9.10454L11.6409 9.20126L11.7198 8.68951L11.2256 8.61334ZM11.2385 8.52942L11.7048 8.34876L11.0292 6.60544L10.7444 8.45325L11.2385 8.52942ZM10.8084 8.80333C10.9082 9.06082 11.1978 9.18866 11.4553 9.08889C11.7128 8.98911 11.8407 8.69949 11.7409 8.442L10.8084 8.80333ZM10.6843 10.7351C10.8929 10.5541 10.9153 10.2383 10.7344 10.0297C10.5535 9.82112 10.2377 9.79868 10.0291 9.97961L10.6843 10.7351ZM10.2811 10.4229L10.236 10.9208L10.448 10.94L10.6087 10.8006L10.2811 10.4229ZM10.0902 10.4945L9.66837 10.2261L10.0902 10.4945ZM10.0184 10.6226L9.55694 10.4301L9.11189 11.4968L10.194 11.0907L10.0184 10.6226ZM10.0755 10.6011L10.4031 10.9789L9.8999 10.133L10.0755 10.6011ZM9.6724 10.2889C9.46379 10.4699 9.44134 10.7857 9.62227 10.9943C9.8032 11.2029 10.119 11.2253 10.3276 11.0444L9.6724 10.2889ZM12.2242 3.06869C12.078 2.8344 11.7696 2.76295 11.5353 2.90911C11.301 3.05528 11.2296 3.36369 11.3757 3.59798L12.2242 3.06869ZM11.8529 3.41818L11.4287 3.68282L11.4937 3.78711L11.5997 3.84935L11.8529 3.41818ZM13.0428 4.72432L13.4667 4.45931L13.0428 4.72432ZM13.3759 5.39092L12.9094 5.57079L13.3759 5.39092ZM13.6581 6.08244L13.199 6.2804L13.6581 6.08244ZM13.9499 6.78187L13.4863 6.96906L13.9499 6.78187ZM14.1058 8.28188L13.6066 8.25235L14.1058 8.28188ZM14.0016 9.03284L13.5133 8.92535L14.0016 9.03284ZM13.4947 10.4021L13.8679 10.7348L13.4947 10.4021ZM13.3172 10.6948L13.0902 11.1403L13.4107 11.3035L13.6674 11.0516L13.3172 10.6948ZM13.3884 10.625L13.8836 10.6937L14.0853 9.24062L13.0382 10.2681L13.3884 10.625ZM12.8794 10.6553C12.8414 10.9288 13.0324 11.1813 13.3059 11.2193C13.5794 11.2572 13.8319 11.0663 13.8699 10.7927L12.8794 10.6553ZM12.5911 12.629C12.7967 12.4446 12.8139 12.1285 12.6296 11.9229C12.4453 11.7173 12.1292 11.7 11.9235 11.8844L12.5911 12.629ZM12.1828 12.3234L12.2035 12.823L12.3829 12.8156L12.5166 12.6957L12.1828 12.3234ZM11.8952 12.4024L12.1902 12.8061L11.8952 12.4024ZM11.8331 12.7076L11.3663 12.5284L11.2629 12.7976L11.4442 13.0219L11.8331 12.7076ZM11.8744 12.5999L12.3412 12.7792L11.5407 12.2276L11.8744 12.5999ZM11.4662 12.2944C11.2606 12.4787 11.2433 12.7948 11.4277 13.0004C11.612 13.206 11.9281 13.2233 12.1337 13.039L11.4662 12.2944ZM6.40092 3.01713C6.20641 2.82112 5.88983 2.81989 5.69382 3.0144C5.4978 3.2089 5.49658 3.52548 5.69108 3.7215L6.40092 3.01713ZM6.11644 3.4403L5.76152 3.79248L6.187 4.22127L6.52873 3.72316L6.11644 3.4403ZM7.25051 3.19664L6.75658 3.11895L7.25051 3.19664ZM7.31172 4.51024L7.74582 4.75836L7.83033 4.61051L7.80702 4.44181L7.31172 4.51024ZM7.2629 4.59566L6.8288 4.34754L6.64003 4.67781L6.90798 4.94785L7.2629 4.59566ZM6.97842 5.01883C7.17292 5.21485 7.4895 5.21607 7.68552 5.02157C7.88153 4.82706 7.88276 4.51048 7.68825 4.31447L6.97842 5.01883ZM7.83333 7.33332C7.83333 7.05717 7.60948 6.83332 7.33333 6.83332C7.05719 6.83332 6.83333 7.05717 6.83333 7.33332H7.83333ZM7.33333 7.43332H6.83333V7.44385L6.83378 7.45438L7.33333 7.43332ZM7.26084 9.95832L7.76035 9.98039L7.26084 9.95832ZM7.26279 10.7083L6.7634 10.733L7.26279 10.7083ZM7.23817 12.2083L7.73271 12.282L7.23817 12.2083ZM7.11941 12.9037L7.61005 13L7.11941 12.9037ZM6.144 12.7919L5.74683 13.0957L6.144 12.7919ZM4.85664 10.9432L4.43392 11.2102L4.85664 10.9432ZM3.75062 10.0496L3.67758 10.5442L3.75062 10.0496ZM3.0226 9.93103L2.93534 10.4234L3.0226 9.93103ZM2.78451 6.00097L2.86527 5.50753L2.78451 6.00097ZM4.15806 5.71195L3.78026 5.38442L4.15806 5.71195ZM4.88021 4.90429L5.18715 4.50959L4.95269 4.32726L4.68042 4.44595L4.88021 4.90429ZM4.78056 4.94773L4.49514 4.5372L4.98035 5.40608L4.78056 4.94773ZM5.14808 5.30118C5.37481 5.14355 5.43083 4.83196 5.2732 4.60523C5.11557 4.3785 4.80398 4.32248 4.57725 4.48011L5.14808 5.30118ZM2.35355 1.64645C2.15829 1.45118 1.84171 1.45118 1.64645 1.64645C1.45118 1.84171 1.45118 2.15829 1.64645 2.35355L2.35355 1.64645ZM2.07071 2.07071L1.71705 2.42437L1.72611 2.43299L2.07071 2.07071ZM2.84466 2.74633L2.54436 3.1461L2.84466 2.74633ZM3.37922 3.27243L2.98421 3.57896L3.37922 3.27243ZM3.89444 3.81787L4.22277 3.44078L3.89444 3.81787ZM4.36214 4.41083L3.92075 4.64573L4.36214 4.41083ZM5.99452 5.96043L5.58794 6.25145L5.99452 5.96043ZM7.56426 7.57267L7.1491 7.85131L7.56426 7.57267ZM8.11554 8.08206L8.36238 7.64724L8.11554 8.08206ZM9.22873 9.09018L8.92633 9.48836L9.22873 9.09018ZM10.281 10.1593L10.6064 9.77973L10.281 10.1593ZM10.7363 10.7646L11.1886 10.5516L10.7363 10.7646ZM11.2218 11.3397L10.9408 11.7533L11.2218 11.3397ZM11.8522 11.77L11.5695 12.1824L11.8522 11.77ZM12.3902 12.2927L12.7945 11.9985L12.3902 12.2927ZM12.8295 12.9141L13.2416 12.631L12.8295 12.9141ZM13.9684 14.0316L14.322 14.3851L14.5513 14.1558L14.4354 13.8529L13.9684 14.0316ZM13.9293 13.9293L14.2828 13.5757L13.4623 14.108L13.9293 13.9293ZM13.6464 14.3536C13.8417 14.5488 14.1583 14.5488 14.3536 14.3536C14.5488 14.1583 14.5488 13.8417 14.3536 13.6464L13.6464 14.3536ZM10 5.33333L9.53378 5.514L9.56992 5.60724L10.0361 5.42658L10.5024 5.24591L10.4662 5.15267L10 5.33333ZM10.0361 5.42658L9.65551 5.75081C9.9356 6.0796 10.1523 6.33661 10.3062 6.52264L10.6914 6.20384L11.0766 5.88504C10.9182 5.69362 10.698 5.43246 10.4168 5.10234L10.0361 5.42658ZM10.6914 6.20384L10.3062 6.52264C10.4416 6.68625 10.5629 6.8651 10.6698 7.05989L11.1081 6.81934L11.5465 6.57879C11.4101 6.33035 11.2536 6.09886 11.0766 5.88504L10.6914 6.20384ZM11.1081 6.81934L10.6698 7.05989C10.7629 7.2296 10.824 7.41013 10.8533 7.60421L11.3477 7.52942L11.8421 7.45463C11.7953 7.14517 11.6966 6.85231 11.5465 6.57879L11.1081 6.81934ZM11.3477 7.52942L10.8533 7.60421C10.8802 7.78204 10.8663 7.94496 10.8155 8.0999L11.2907 8.25554L11.7658 8.41119C11.8673 8.1015 11.8913 7.78034 11.8421 7.45463L11.3477 7.52942ZM11.2907 8.25554L10.8155 8.0999C10.776 8.22059 10.7426 8.3351 10.7254 8.42975C10.7179 8.47092 10.7058 8.54707 10.7132 8.63121C10.7168 8.67185 10.728 8.7568 10.7786 8.84809C10.8383 8.95582 10.9549 9.07082 11.1322 9.10454L11.2256 8.61334L11.319 8.12214C11.4882 8.1543 11.5983 8.26421 11.6532 8.36333C11.699 8.44599 11.7072 8.51878 11.7093 8.54374C11.714 8.59651 11.7059 8.62716 11.7093 8.6087C11.7137 8.58408 11.7293 8.5228 11.7658 8.41119L11.2907 8.25554ZM11.2256 8.61334L11.7198 8.68951L11.7327 8.60559L11.2385 8.52942L10.7444 8.45325L10.7314 8.53717L11.2256 8.61334ZM11.2385 8.52942L10.7723 8.71009L10.8084 8.80333L11.2747 8.62267L11.7409 8.442L11.7048 8.34876L11.2385 8.52942ZM10.3567 10.3573L10.0291 9.97961L9.95352 10.0451L10.2811 10.4229L10.6087 10.8006L10.6843 10.7351L10.3567 10.3573ZM10.2811 10.4229L10.3262 9.92489C10.1305 9.90717 9.84216 9.95289 9.66837 10.2261L10.0902 10.4945L10.5121 10.7628C10.4703 10.8286 10.4076 10.8775 10.3403 10.9027C10.2814 10.9248 10.24 10.9212 10.236 10.9208L10.2811 10.4229ZM10.0902 10.4945L9.66837 10.2261C9.63014 10.2862 9.58661 10.359 9.55694 10.4301L10.0184 10.6226L10.4798 10.8151C10.4774 10.821 10.476 10.8236 10.4766 10.8225C10.4771 10.8215 10.4786 10.8185 10.4816 10.8131C10.4878 10.8021 10.4976 10.7856 10.5121 10.7628L10.0902 10.4945ZM10.0184 10.6226L10.194 11.0907L10.2512 11.0693L10.0755 10.6011L9.8999 10.133L9.84274 10.1545L10.0184 10.6226ZM10.0755 10.6011L9.74795 10.2234L9.6724 10.2889L10 10.6667L10.3276 11.0444L10.4031 10.9789L10.0755 10.6011ZM11.8 3.33333L11.3757 3.59798L11.4287 3.68282L11.8529 3.41818L12.2771 3.15353L12.2242 3.06869L11.8 3.33333ZM11.8529 3.41818L11.5997 3.84935C11.9644 4.06348 12.1446 4.23597 12.2171 4.35055L12.6397 4.08328L13.0623 3.81602C12.8622 3.49974 12.5179 3.22883 12.1061 2.98701L11.8529 3.41818ZM12.6397 4.08328L12.2171 4.35055C12.3529 4.56524 12.4868 4.77816 12.6188 4.98933L13.0428 4.72432L13.4667 4.45931C13.3338 4.24661 13.199 4.03217 13.0623 3.81602L12.6397 4.08328ZM13.0428 4.72432L12.6188 4.98933C12.7344 5.17439 12.8312 5.36808 12.9094 5.57079L13.3759 5.39092L13.8424 5.21105C13.7413 4.94882 13.616 4.69812 13.4667 4.45931L13.0428 4.72432ZM13.3759 5.39092L12.9094 5.57079C13.0013 5.80932 13.0979 6.04586 13.199 6.2804L13.6581 6.08244L14.1173 5.88449C14.0213 5.66192 13.9297 5.43745 13.8424 5.21105L13.3759 5.39092ZM13.6581 6.08244L13.199 6.2804C13.2959 6.50527 13.3917 6.73482 13.4863 6.96906L13.9499 6.78187L14.4136 6.59467C14.3162 6.35344 14.2174 6.11671 14.1173 5.88449L13.6581 6.08244ZM13.9499 6.78187L13.4863 6.96906C13.5612 7.15466 13.6027 7.34508 13.6116 7.54261L14.1111 7.52013L14.6106 7.49765C14.5966 7.18629 14.5306 6.88453 14.4136 6.59467L13.9499 6.78187ZM14.1111 7.52013L13.6116 7.54261C13.6223 7.77977 13.6206 8.01633 13.6066 8.25235L14.1058 8.28188L14.6049 8.31141C14.6209 8.04064 14.6228 7.76936 14.6106 7.49765L14.1111 7.52013ZM14.1058 8.28188L13.6066 8.25235C13.5932 8.47959 13.5621 8.70384 13.5133 8.92535L14.0016 9.03284L14.4899 9.14033C14.55 8.86735 14.5883 8.59097 14.6049 8.31141L14.1058 8.28188ZM14.0016 9.03284L13.5133 8.92535C13.4602 9.16659 13.4027 9.40673 13.3408 9.64577L13.8248 9.7712L14.3088 9.89663C14.3738 9.64567 14.4342 9.39357 14.4899 9.14033L14.0016 9.03284ZM13.8248 9.7712L13.3408 9.64577C13.2957 9.81981 13.2212 9.95752 13.1215 10.0694L13.4947 10.4021L13.8679 10.7348C14.0813 10.4955 14.2269 10.2126 14.3088 9.89663L13.8248 9.7712ZM13.4947 10.4021L13.1215 10.0694C13.0395 10.1613 12.9599 10.2578 12.9054 10.3477C12.8825 10.3855 12.8339 10.4694 12.8146 10.5777C12.8043 10.6356 12.7955 10.7368 12.8365 10.8517C12.8828 10.9817 12.9763 11.0822 13.0902 11.1403L13.3172 10.6948L13.5442 10.2493C13.6486 10.3024 13.7355 10.3956 13.7784 10.5159C13.8159 10.621 13.8068 10.7101 13.799 10.7533C13.7909 10.7991 13.7776 10.8309 13.7719 10.8435C13.7655 10.858 13.7606 10.866 13.7604 10.8662C13.76 10.867 13.7617 10.8641 13.7667 10.8571C13.7716 10.8503 13.7785 10.841 13.7879 10.8291C13.807 10.8049 13.8332 10.7737 13.8679 10.7348L13.4947 10.4021ZM13.3172 10.6948L13.6674 11.0516L13.7386 10.9818L13.3884 10.625L13.0382 10.2681L12.9671 10.3379L13.3172 10.6948ZM13.3884 10.625L12.8931 10.5562L12.8794 10.6553L13.3746 10.724L13.8699 10.7927L13.8836 10.6937L13.3884 10.625ZM12.2573 12.2567L11.9235 11.8844L11.8491 11.9511L12.1828 12.3234L12.5166 12.6957L12.5911 12.629L12.2573 12.2567ZM12.1828 12.3234L12.1622 11.8238C11.9892 11.831 11.7791 11.868 11.6002 11.9987L11.8952 12.4024L12.1902 12.8061C12.1635 12.8256 12.1453 12.83 12.1481 12.8293C12.1492 12.829 12.1541 12.8277 12.1636 12.8264C12.1731 12.825 12.1863 12.8237 12.2035 12.823L12.1828 12.3234ZM11.8952 12.4024L11.6002 11.9987C11.4899 12.0793 11.3975 12.1955 11.3522 12.3452C11.3088 12.4884 11.32 12.6238 11.3467 12.7315L11.832 12.611L12.3173 12.4906C12.3213 12.5065 12.3316 12.5613 12.3093 12.635C12.285 12.7151 12.2356 12.7729 12.1902 12.8061L11.8952 12.4024ZM11.832 12.611L11.3467 12.7315C11.3603 12.7862 11.3499 12.761 11.3494 12.7093C11.3492 12.6955 11.3486 12.6386 11.37 12.5681C11.3871 12.5116 11.4701 12.289 11.7354 12.2292C11.9613 12.1783 12.1188 12.2988 12.1416 12.316C12.1869 12.3503 12.2143 12.3839 12.222 12.3934L11.8331 12.7076L11.4442 13.0219C11.4574 13.0382 11.4895 13.0768 11.539 13.1141C11.5659 13.1344 11.7268 13.2562 11.9554 13.2047C12.2235 13.1443 12.3085 12.9192 12.3269 12.8584C12.3496 12.7835 12.3496 12.7204 12.3493 12.6986C12.3484 12.6147 12.3265 12.5276 12.3173 12.4906L11.832 12.611ZM11.8331 12.7076L12.2998 12.8869L12.3412 12.7792L11.8744 12.5999L11.4077 12.4207L11.3663 12.5284L11.8331 12.7076ZM11.8744 12.5999L11.5407 12.2276L11.4662 12.2944L11.8 12.6667L12.1337 13.039L12.2082 12.9722L11.8744 12.5999ZM6.046 3.36932L5.69108 3.7215L5.76152 3.79248L6.11644 3.4403L6.47136 3.08812L6.40092 3.01713L6.046 3.36932ZM6.11644 3.4403L6.52873 3.72316C6.79845 3.33002 6.94581 3.30598 6.94895 3.30584L6.92718 2.80632L6.90542 2.30679C6.39206 2.32916 5.99892 2.72777 5.70414 3.15743L6.11644 3.4403ZM6.92718 2.80632L6.94895 3.30584C7.00675 3.30332 6.90667 3.32309 6.81665 3.21442C6.77621 3.16561 6.76396 3.11928 6.76076 3.09953C6.75805 3.08282 6.76172 3.08625 6.75658 3.11895L7.25051 3.19664L7.74444 3.27432C7.77447 3.0834 7.77615 2.80513 7.58675 2.57649C7.38895 2.33772 7.10586 2.29806 6.90542 2.30679L6.92718 2.80632ZM7.25051 3.19664L6.75658 3.11895C6.70695 3.43453 6.70118 3.74466 6.743 4.04728L7.23829 3.97883L7.73359 3.91039C7.70631 3.71301 7.70868 3.50167 7.74444 3.27432L7.25051 3.19664ZM7.23829 3.97883L6.743 4.04728C6.77755 4.29728 6.80202 4.47441 6.81643 4.57867L7.31172 4.51024L7.80702 4.44181C7.79261 4.33753 7.76813 4.16039 7.73359 3.91039L7.23829 3.97883ZM7.31172 4.51024L6.87763 4.26212L6.8288 4.34754L7.2629 4.59566L7.69699 4.84379L7.74582 4.75836L7.31172 4.51024ZM7.2629 4.59566L6.90798 4.94785L6.97842 5.01883L7.33333 4.66665L7.68825 4.31447L7.61782 4.24348L7.2629 4.59566ZM7.33333 7.33332H6.83333V7.43332H7.33333H7.83333V7.33332H7.33333ZM7.33333 7.43332L6.83378 7.45438C6.85168 7.87912 6.84872 8.19575 6.82925 8.41388L7.32727 8.45832L7.82529 8.50276C7.85045 8.22088 7.85152 7.85418 7.83289 7.41226L7.33333 7.43332ZM7.32727 8.45832L6.82925 8.41388C6.80595 8.67498 6.79144 8.93616 6.78573 9.19739L7.28561 9.20832L7.78549 9.21924C7.79071 8.98047 7.80398 8.74165 7.82529 8.50276L7.32727 8.45832ZM7.28561 9.20832L6.78573 9.19739C6.78035 9.44367 6.77221 9.68995 6.76133 9.93624L7.26084 9.95832L7.76035 9.98039C7.77156 9.72668 7.77994 9.47296 7.78549 9.21924L7.28561 9.20832ZM7.26084 9.95832L6.76133 9.93624C6.74959 10.2018 6.75028 10.4674 6.7634 10.733L7.26279 10.7083L7.76218 10.6836C7.7506 10.4492 7.74999 10.2148 7.76035 9.98039L7.26084 9.95832ZM7.26279 10.7083L6.7634 10.733C6.77549 10.9776 6.7836 11.2222 6.78775 11.4668L7.28767 11.4583L7.7876 11.4499C7.78328 11.1944 7.77481 10.939 7.76218 10.6836L7.26279 10.7083ZM7.28767 11.4583L6.78775 11.4668C6.79151 11.689 6.77686 11.9115 6.74362 12.1347L7.23817 12.2083L7.73271 12.282C7.77395 12.0051 7.7923 11.7276 7.7876 11.4499L7.28767 11.4583ZM7.23817 12.2083L6.74362 12.1347C6.70734 12.3782 6.66902 12.6024 6.62878 12.8073L7.11941 12.9037L7.61005 13C7.65367 12.7778 7.69452 12.5384 7.73271 12.282L7.23817 12.2083ZM7.11941 12.9037L6.62878 12.8073C6.62437 12.8298 6.63386 12.7579 6.7218 12.703C6.80245 12.6526 6.85675 12.6752 6.81039 12.6661L6.71406 13.1568L6.61774 13.6474C6.79967 13.6831 7.03569 13.686 7.25145 13.5512C7.47451 13.4119 7.57253 13.1911 7.61005 13L7.11941 12.9037ZM6.71406 13.1568L6.81039 12.6661C6.71104 12.6466 6.62471 12.5974 6.54117 12.4882L6.144 12.7919L5.74683 13.0957C5.96677 13.3832 6.26047 13.5773 6.61774 13.6474L6.71406 13.1568ZM6.144 12.7919L6.54117 12.4882C6.38505 12.284 6.22448 12.0832 6.05945 11.8858L5.67579 12.2064L5.29212 12.527C5.44792 12.7134 5.59949 12.903 5.74683 13.0957L6.144 12.7919ZM5.67579 12.2064L6.05945 11.8858C5.91789 11.7164 5.79145 11.5349 5.68006 11.341L5.24652 11.5901L4.81298 11.8392C4.95312 12.0831 5.11286 12.3125 5.29212 12.527L5.67579 12.2064ZM5.24652 11.5901L5.68006 11.341C5.55083 11.1161 5.41726 10.8945 5.27936 10.6762L4.85664 10.9432L4.43392 11.2102C4.56432 11.4167 4.69068 11.6263 4.81298 11.8392L5.24652 11.5901ZM4.85664 10.9432L5.27936 10.6762C5.12303 10.4287 4.93804 10.2034 4.72514 10.001L4.38059 10.3633L4.03604 10.7257C4.18956 10.8716 4.32193 11.033 4.43392 11.2102L4.85664 10.9432ZM4.38059 10.3633L4.72514 10.001C4.47168 9.75998 4.16832 9.60581 3.82365 9.55492L3.75062 10.0496L3.67758 10.5442C3.80645 10.5632 3.92307 10.6182 4.03604 10.7257L4.38059 10.3633ZM3.75062 10.0496L3.82365 9.55492C3.59189 9.52069 3.35396 9.48196 3.10986 9.4387L3.0226 9.93103L2.93534 10.4234C3.18839 10.4682 3.43581 10.5085 3.67758 10.5442L3.75062 10.0496ZM3.0226 9.93103L3.10986 9.4387C2.88649 9.39911 2.67962 9.34475 2.48842 9.27657L2.32047 9.74751L2.15251 10.2185C2.40035 10.3068 2.66157 10.3748 2.93534 10.4234L3.0226 9.93103ZM2.32047 9.74751L2.48842 9.27657C2.47623 9.27222 2.47989 9.27163 2.49111 9.28054C2.50354 9.29042 2.51785 9.30615 2.52878 9.32649C2.55096 9.36779 2.53538 9.38049 2.54458 9.32057L2.05037 9.24468L1.55616 9.1688C1.52591 9.36581 1.53561 9.59079 1.64783 9.7997C1.76399 10.0159 1.95351 10.1475 2.15251 10.2185L2.32047 9.74751ZM2.05037 9.24468L2.54458 9.32057C2.58774 9.03946 2.60951 8.76054 2.6094 8.48408L2.1094 8.48428L1.6094 8.48449C1.60949 8.70802 1.5919 8.93605 1.55616 9.1688L2.05037 9.24468ZM2.1094 8.48428L2.6094 8.48408C2.60928 8.2024 2.58255 7.92135 2.52955 7.64131L2.03827 7.73428L1.54699 7.82726C1.58862 8.04722 1.60931 8.26616 1.6094 8.48449L2.1094 8.48428ZM2.03827 7.73428L2.52955 7.64131C2.48512 7.40651 2.45169 7.17033 2.42926 6.93272L1.93147 6.97971L1.43369 7.0267C1.45903 7.29519 1.4968 7.56206 1.54699 7.82726L2.03827 7.73428ZM1.93147 6.97971L2.42926 6.93272C2.4181 6.81447 2.44609 6.69913 2.5442 6.56805L2.1439 6.26845L1.74361 5.96884C1.5107 6.28002 1.39707 6.63885 1.43369 7.0267L1.93147 6.97971ZM2.1439 6.26845L2.5442 6.56805C2.58384 6.51509 2.61117 6.50116 2.62084 6.49713C2.62927 6.49361 2.65158 6.48586 2.70376 6.4944L2.78451 6.00097L2.86527 5.50753C2.65587 5.47326 2.44064 5.4887 2.23553 5.57434C2.03167 5.65946 1.86947 5.80068 1.74361 5.96884L2.1439 6.26845ZM2.78451 6.00097L2.70376 6.4944C3.00854 6.54428 3.31084 6.55304 3.60917 6.51861L3.55186 6.02191L3.49454 5.5252C3.29288 5.54847 3.08361 5.54327 2.86527 5.50753L2.78451 6.00097ZM3.55186 6.02191L3.60917 6.51861C3.97396 6.47652 4.29379 6.31869 4.53585 6.03947L4.15806 5.71195L3.78026 5.38442C3.71406 5.46079 3.62975 5.5096 3.49454 5.5252L3.55186 6.02191ZM4.15806 5.71195L4.53585 6.03947C4.68399 5.86859 4.83983 5.69832 5.00343 5.52867L4.64351 5.1816L4.28359 4.83453C4.10819 5.01642 3.9404 5.19971 3.78026 5.38442L4.15806 5.71195ZM4.64351 5.1816L5.00343 5.52867C5.08969 5.43921 5.16042 5.36326 5.21011 5.30506C5.23277 5.27851 5.26309 5.24177 5.28894 5.20271C5.29895 5.18759 5.32798 5.14335 5.34991 5.08343C5.3601 5.05555 5.38297 4.98726 5.38125 4.89743C5.37933 4.79672 5.34247 4.63037 5.18715 4.50959L4.88021 4.90429L4.57328 5.299C4.41942 5.17935 4.38331 5.0148 4.38144 4.91652C4.37977 4.82913 4.40197 4.76393 4.4108 4.7398C4.42999 4.68735 4.45345 4.6532 4.45506 4.65077C4.46411 4.6371 4.46631 4.63616 4.44951 4.65583C4.4203 4.69006 4.36682 4.74821 4.28359 4.83453L4.64351 5.1816ZM4.88021 4.90429L4.68042 4.44595L4.58077 4.48938L4.78056 4.94773L4.98035 5.40608L5.08 5.36264L4.88021 4.90429ZM4.78056 4.94773L5.06598 5.35827L5.14808 5.30118L4.86267 4.89065L4.57725 4.48011L4.49514 4.5372L4.78056 4.94773ZM2 2L1.64645 2.35355L1.71716 2.42426L2.07071 2.07071L2.42426 1.71716L2.35355 1.64645L2 2ZM2.07071 2.07071L1.72611 2.43299C2.04581 2.7371 2.31988 2.97747 2.54436 3.1461L2.84466 2.74633L3.14497 2.34655C2.96566 2.21186 2.72376 2.00182 2.41531 1.70843L2.07071 2.07071ZM2.84466 2.74633L2.54436 3.1461C2.71075 3.27109 2.85707 3.41512 2.98421 3.57896L3.37922 3.27243L3.77424 2.9659C3.59242 2.73159 3.38237 2.52489 3.14497 2.34655L2.84466 2.74633ZM3.37922 3.27243L2.98421 3.57896C3.15846 3.80352 3.35251 4.00899 3.56611 4.19497L3.89444 3.81787L4.22277 3.44078C4.05837 3.29764 3.90894 3.13948 3.77424 2.9659L3.37922 3.27243ZM3.89444 3.81787L3.56611 4.19497C3.70708 4.31771 3.82538 4.46653 3.92075 4.64573L4.36214 4.41083L4.80352 4.17594C4.65329 3.89364 4.45979 3.64715 4.22277 3.44078L3.89444 3.81787ZM4.36214 4.41083L3.92075 4.64573C4.07577 4.93703 4.28282 5.18507 4.54125 5.38385L4.8461 4.98754L5.15094 4.59122C5.0097 4.48257 4.8941 4.34614 4.80352 4.17594L4.36214 4.41083ZM4.8461 4.98754L4.54125 5.38385C4.74793 5.54283 4.95934 5.69694 5.17547 5.84617L5.45957 5.43472L5.74366 5.02327C5.54151 4.88369 5.34394 4.73967 5.15094 4.59122L4.8461 4.98754ZM5.45957 5.43472L5.17547 5.84617C5.33729 5.9579 5.47412 6.09243 5.58794 6.25145L5.99452 5.96043L6.4011 5.66941C6.21994 5.4163 6.00013 5.20036 5.74366 5.02327L5.45957 5.43472ZM5.99452 5.96043L5.58794 6.25145C5.75727 6.48802 5.95047 6.70215 6.16728 6.8931L6.49774 6.51787L6.8282 6.14264C6.66903 6.00246 6.52676 5.84497 6.4011 5.66941L5.99452 5.96043ZM6.49774 6.51787L6.16728 6.8931C6.35705 7.06022 6.54809 7.22608 6.7404 7.39065L7.0655 7.01077L7.3906 6.63089C7.20188 6.46939 7.01442 6.30664 6.8282 6.14264L6.49774 6.51787ZM7.0655 7.01077L6.7404 7.39065C6.89589 7.52371 7.03198 7.67682 7.1491 7.85131L7.56426 7.57267L7.97942 7.29403C7.81255 7.0454 7.61615 6.82391 7.3906 6.63089L7.0655 7.01077ZM7.56426 7.57267L7.1491 7.85131C7.33511 8.12846 7.57695 8.35125 7.86869 8.51687L8.11554 8.08206L8.36238 7.64724C8.20307 7.5568 8.07739 7.44 7.97942 7.29403L7.56426 7.57267ZM8.11554 8.08206L7.86869 8.51687C8.04133 8.61488 8.1842 8.73627 8.30135 8.88155L8.69057 8.56768L9.07978 8.25382C8.88127 8.00765 8.64079 7.80529 8.36238 7.64724L8.11554 8.08206ZM8.69057 8.56768L8.30135 8.88155C8.48469 9.1089 8.69326 9.31135 8.92633 9.48836L9.22873 9.09018L9.53114 8.69199C9.36232 8.56379 9.21211 8.41791 9.07978 8.25382L8.69057 8.56768ZM9.22873 9.09018L8.92633 9.48836C9.09306 9.61499 9.2403 9.76019 9.36885 9.92467L9.7628 9.61677L10.1568 9.30887C9.9751 9.07645 9.76629 8.87059 9.53114 8.69199L9.22873 9.09018ZM9.7628 9.61677L9.36885 9.92467C9.54425 10.1491 9.73988 10.354 9.95547 10.5388L10.281 10.1593L10.6064 9.77973C10.4414 9.63816 10.2916 9.48135 10.1568 9.30887L9.7628 9.61677ZM10.281 10.1593L9.95547 10.5388C10.0891 10.6534 10.199 10.7973 10.2839 10.9777L10.7363 10.7646L11.1886 10.5516C11.0472 10.2513 10.8535 9.99158 10.6064 9.77973L10.281 10.1593ZM10.7363 10.7646L10.2839 10.9777C10.4335 11.2953 10.653 11.5577 10.9408 11.7533L11.2218 11.3397L11.5029 10.9262C11.3697 10.8357 11.2654 10.7147 11.1886 10.5516L10.7363 10.7646ZM11.2218 11.3397L10.9408 11.7533C11.1507 11.896 11.3603 12.039 11.5695 12.1824L11.8522 11.77L12.1349 11.3576C11.9246 11.2134 11.7139 11.0696 11.5029 10.9262L11.2218 11.3397ZM11.8522 11.77L11.5695 12.1824C11.7326 12.2941 11.8707 12.4284 11.9859 12.5868L12.3902 12.2927L12.7945 11.9985C12.612 11.7476 12.3914 11.5334 12.1349 11.3576L11.8522 11.77ZM12.3902 12.2927L11.9859 12.5868C12.1321 12.7878 12.2759 12.9912 12.4173 13.1971L12.8295 12.9141L13.2416 12.631C13.0952 12.4177 12.9461 12.2069 12.7945 11.9985L12.3902 12.2927ZM12.8295 12.9141L12.4173 13.1971C12.5943 13.4549 12.8111 13.6754 13.0657 13.8564L13.3554 13.4488L13.645 13.0413C13.4863 12.9285 13.3525 12.7924 13.2416 12.631L12.8295 12.9141ZM13.3554 13.4488L13.0657 13.8564C13.2495 13.987 13.3457 14.0865 13.3894 14.1498L13.8011 13.8661L14.2128 13.5824C14.0755 13.3832 13.8746 13.2044 13.645 13.0413L13.3554 13.4488ZM13.8011 13.8661L13.3894 14.1498C13.4382 14.2206 13.4965 14.2994 13.5593 14.3615C13.5856 14.3876 13.6493 14.4484 13.7433 14.4901C13.7937 14.5124 13.8813 14.5422 13.9925 14.5348C14.1168 14.5264 14.2337 14.4734 14.322 14.3851L13.9684 14.0316L13.6149 13.678C13.6979 13.595 13.8085 13.5449 13.9254 13.537C14.029 13.53 14.1082 13.558 14.149 13.5761C14.1916 13.595 14.2206 13.6158 14.2343 13.6263C14.2493 13.6378 14.2589 13.647 14.2624 13.6505C14.2694 13.6574 14.2546 13.643 14.2128 13.5824L13.8011 13.8661ZM13.9684 14.0316L14.4354 13.8529L14.3963 13.7506L13.9293 13.9293L13.4623 14.108L13.5015 14.2103L13.9684 14.0316ZM13.9293 13.9293L13.5757 14.2828L13.6464 14.3536L14 14L14.3536 13.6464L14.2828 13.5757L13.9293 13.9293Z" fill="white"/>
</svg>
