<svg width="16" height="16" viewBox="0 0 16 16" fill="none" xmlns="http://www.w3.org/2000/svg">
<path d="M7.13672 2.38657C7.26706 2.43748 7.36438 2.52022 7.43359 2.60922L7.57422 2.87094L7.80078 3.58188C7.89643 3.91974 7.89436 4.26308 7.80078 4.60141C7.74224 4.81304 7.71159 5.02318 7.70703 5.23032C7.70305 5.41557 7.73504 5.60474 7.80469 5.80063C7.90991 6.09647 7.96697 6.39812 7.97656 6.70297C7.98603 7.00428 7.95167 7.3053 7.87109 7.60141C7.82188 7.783 7.81122 7.95976 7.83984 8.13657C7.88823 8.4331 7.89592 8.73376 7.85938 9.0311C7.83287 9.24757 7.82689 9.46351 7.84375 9.67953C7.86539 9.95665 7.86346 10.2345 7.83984 10.5116C7.8215 10.7272 7.82565 10.944 7.85156 11.16C7.88779 11.4628 7.87642 11.7654 7.81641 12.0663C7.76712 12.3133 7.72542 12.5441 7.6875 12.7577C7.65808 12.9233 7.59656 13.0975 7.47656 13.2459C7.35119 13.401 7.18193 13.4978 6.99609 13.5428C6.62927 13.6313 6.29673 13.4981 6.03516 13.2928C5.83516 13.1358 5.63799 12.9635 5.44531 12.7772C5.23225 12.571 5.04959 12.3404 4.89844 12.0858C4.78631 11.8968 4.65709 11.7209 4.51172 11.5584C4.30237 11.3245 4.14134 11.0561 4.02734 10.7577C3.98808 10.6548 3.95095 10.583 3.92188 10.535C3.90831 10.5127 3.90066 10.4957 3.89453 10.4881C3.81962 10.4875 3.72053 10.4858 3.60156 10.4803C3.39524 10.4709 3.1808 10.4904 2.95703 10.535C2.75305 10.5758 2.52115 10.5698 2.30469 10.4647C2.08608 10.3578 1.94275 10.1783 1.85547 9.98422C1.7352 9.71592 1.65045 9.43751 1.60547 9.15219C1.56411 8.88977 1.54137 8.62263 1.53516 8.35141C1.52958 8.1057 1.51904 7.85884 1.50781 7.61313C1.49614 7.3578 1.49194 7.099 1.48828 6.83969C1.48259 6.43596 1.64011 6.08321 1.94531 5.82016C2.26579 5.54394 2.65884 5.45787 3.06641 5.56235C3.22312 5.60269 3.3241 5.5832 3.39844 5.54672C3.5677 5.46296 3.74866 5.35381 3.9375 5.21469C4.12204 5.07866 4.28894 4.92938 4.4375 4.76938C4.55722 4.64038 4.65191 4.48441 4.71484 4.29672C4.81509 3.99816 4.95626 3.72506 5.14062 3.48032C5.33406 3.22364 5.57991 3.0107 5.86719 2.83969C6.10248 2.69963 6.30388 2.57678 6.47266 2.4725L6.75781 2.35532C6.87137 2.33235 7.00092 2.33387 7.13672 2.38657ZM11.5352 2.91C11.7106 2.80053 11.9266 2.81399 12.0859 2.92563L12.2227 3.07016L12.2617 3.12875C12.5251 3.44876 12.7343 3.69012 12.8867 3.85922C13.0625 4.05425 13.2271 4.25949 13.3828 4.4725C13.5416 4.68978 13.684 4.91838 13.8125 5.1561C13.9495 5.40981 14.0567 5.67775 14.1289 5.95688C14.188 6.1855 14.2559 6.41479 14.332 6.64047C14.4309 6.93401 14.4753 7.2372 14.4648 7.54672C14.4578 7.75553 14.4749 7.9676 14.5195 8.18344C14.5846 8.49809 14.5915 8.81449 14.5352 9.12875C14.4838 9.41502 14.401 9.6927 14.2891 9.96078C14.1879 10.203 14.0813 10.4417 13.9688 10.6756C13.8389 10.9455 13.6708 11.1919 13.4688 11.4139C13.3032 11.5957 13.1453 11.7793 12.9922 11.9608C12.8618 12.1154 12.7429 12.2932 12.6406 12.4959C12.5757 12.6245 12.508 12.746 12.4336 12.8436C12.396 12.8927 12.3444 12.9466 12.2852 12.9959C12.2287 13.0428 12.136 13.1066 12.0078 13.1327L11.7266 13.1913L11.6836 13.1444C11.6331 13.1321 11.5816 13.1187 11.5352 13.0897C11.3015 12.9435 11.2294 12.6362 11.375 12.4022L11.4297 12.3163L11.7812 11.7498L11.8633 11.8436C11.9722 11.6554 12.0903 11.4778 12.2266 11.3163C12.3882 11.1247 12.5566 10.933 12.7305 10.742C12.8676 10.5913 12.9788 10.4243 13.0664 10.242C13.1713 10.024 13.2726 9.80045 13.3672 9.57407C13.4507 9.37384 13.5124 9.16705 13.5508 8.95297C13.5842 8.76648 13.5824 8.57821 13.543 8.38657C13.4829 8.09572 13.455 7.80241 13.4648 7.51157C13.4711 7.32255 13.4432 7.14021 13.3828 6.96078C13.2991 6.71241 13.2253 6.45904 13.1602 6.20688C13.1082 6.00617 13.0321 5.81514 12.9336 5.63266C12.8264 5.43411 12.7065 5.24324 12.5742 5.06235C12.4387 4.87701 12.2932 4.70038 12.1406 4.5311C11.9688 4.34043 11.7425 4.07207 11.4648 3.73422L11.4453 3.71078L11.4297 3.68344L11.375 3.5975C11.2295 3.36347 11.3015 3.05615 11.5352 2.91ZM6.375 3.69907C6.18834 3.81044 6.0447 3.93963 5.9375 4.08188C5.82168 4.23581 5.72814 4.41429 5.66016 4.61703C5.55466 4.93082 5.39296 5.21073 5.17188 5.44907C4.97917 5.65672 4.7646 5.84736 4.53125 6.01938C4.3026 6.18787 4.0734 6.33152 3.84375 6.44516C3.51938 6.60551 3.1674 6.62011 2.82031 6.5311C2.7231 6.50607 2.66561 6.5194 2.59766 6.57797C2.5148 6.64955 2.48712 6.72054 2.48828 6.82407C2.49179 7.07302 2.49663 7.3216 2.50781 7.56625C2.51941 7.82 2.5294 8.07421 2.53516 8.32797C2.54036 8.55603 2.55952 8.77864 2.59375 8.99594C2.62326 9.18315 2.67809 9.36782 2.75781 9.55063C3.05662 9.4909 3.3553 9.47074 3.64844 9.48422C3.7712 9.48987 3.85895 9.49182 3.91406 9.49203H3.94922C3.98852 9.48606 4.02188 9.48324 4.04688 9.48422C4.11732 9.48711 4.17466 9.50175 4.20312 9.51157C4.26081 9.53157 4.3071 9.5591 4.33203 9.57407C4.38769 9.6075 4.44758 9.65136 4.50391 9.69516C4.72228 9.86501 4.86126 10.1411 4.96094 10.4022C5.03322 10.5911 5.13362 10.7516 5.25781 10.8905C5.44643 11.1012 5.6129 11.33 5.75781 11.5741C5.86351 11.7522 5.99127 11.9139 6.14062 12.0584C6.31041 12.2226 6.48096 12.3731 6.65234 12.5077C6.67183 12.523 6.6926 12.53 6.70703 12.5389C6.74448 12.3299 6.78875 12.1074 6.83594 11.8709C6.87561 11.6721 6.88299 11.4741 6.85938 11.2772C6.82544 10.9937 6.81956 10.7094 6.84375 10.4256C6.86272 10.2029 6.86503 9.98036 6.84766 9.75766C6.82552 9.47421 6.8324 9.1891 6.86719 8.9061C6.89182 8.70453 6.88832 8.50299 6.85547 8.30063C6.80289 7.97841 6.81988 7.65317 6.90625 7.33578C6.96144 7.13244 6.9867 6.93239 6.98047 6.73422C6.97434 6.53932 6.93572 6.34046 6.86328 6.13657C6.75525 5.83282 6.70011 5.5213 6.70703 5.20688C6.71353 4.91426 6.76016 4.62392 6.83984 4.33578C6.88452 4.17428 6.88174 4.01728 6.83594 3.85532C6.79894 3.72465 6.75573 3.6034 6.71875 3.48813C6.6125 3.55242 6.49818 3.62574 6.375 3.69907ZM9.83984 4.85922C10.1008 4.77107 10.3836 4.91115 10.4727 5.17172V5.17563C10.7268 5.47085 10.9307 5.70847 11.0781 5.88657C11.2544 6.0998 11.4109 6.33035 11.5469 6.57797C11.6968 6.8511 11.7969 7.14402 11.8438 7.45297C11.8934 7.78125 11.8635 8.10948 11.7617 8.42563C11.6929 8.63966 11.6462 8.85605 11.6172 9.07407C11.5757 9.38626 11.475 9.68157 11.3203 9.95688C11.1751 10.2152 11 10.4517 10.793 10.6639C10.7008 10.7584 10.6174 10.8393 10.5469 10.9022C10.4905 10.9524 10.4002 11.0304 10.3008 11.078L10.2305 11.1092C10.2242 11.1125 10.2173 11.1141 10.2109 11.117L9.97656 11.2303L9.89453 11.1444C9.87704 11.1405 9.8572 11.1463 9.83984 11.1405C9.57879 11.0518 9.43948 10.7688 9.52734 10.5077L9.55859 10.41L9.82031 9.63657L10.1055 9.92953C10.2378 9.78872 10.3543 9.6372 10.4492 9.4686C10.5422 9.30318 10.6004 9.12665 10.625 8.94125C10.6621 8.66275 10.7255 8.38736 10.8125 8.11703C10.8666 7.94841 10.8779 7.77994 10.8516 7.60532C10.8222 7.41123 10.7611 7.22814 10.668 7.05844C10.5613 6.86438 10.4397 6.68637 10.3047 6.52328C10.1517 6.33845 9.93465 6.08109 9.65234 5.75375L9.58984 5.67953L9.55859 5.58969L9.52734 5.49594L9.5 5.29672C9.51431 5.10253 9.64385 4.92576 9.83984 4.85922ZM3.86328 9.51157C3.84942 9.51603 3.82764 9.52033 3.80469 9.5311C3.7828 9.54141 3.75111 9.56163 3.71484 9.58969C3.77051 9.54661 3.82669 9.51932 3.87891 9.50375C3.87378 9.5052 3.86896 9.50974 3.86328 9.51157Z" fill="white"/>
</svg>
