<svg width="99" height="22" viewBox="0 0 99 22" fill="none" xmlns="http://www.w3.org/2000/svg">
<path d="M23.7518 16.9068C20.0313 16.9068 17.1367 14.3024 17.1367 10.9539C17.1367 7.60544 20.0425 4.96387 23.7518 4.96387C27.4612 4.96387 30.3669 7.60172 30.3669 10.9539C30.3669 14.3061 27.4575 16.9068 23.7518 16.9068ZM23.7518 7.35989C21.3967 7.35989 19.5402 8.93367 19.5402 10.9428C19.5402 12.9518 21.4004 14.4996 23.7518 14.4996C26.1032 14.4996 27.9597 12.9481 27.9597 10.9428C27.9597 8.93739 26.0995 7.35989 23.7518 7.35989Z" fill="#787880"/>
<path d="M47.4068 16.9067C46.7611 16.8998 46.1445 16.6369 45.6925 16.1758C45.2404 15.7147 44.9899 15.0931 44.9958 14.4474V9.49166C44.9553 8.91194 44.6965 8.36916 44.2715 7.97281C43.8465 7.57647 43.287 7.35606 42.7059 7.35606C42.1247 7.35606 41.5652 7.57647 41.1402 7.97281C40.7152 8.36916 40.4564 8.91194 40.4159 9.49166V16.9067C40.0998 16.9072 39.7867 16.8452 39.4947 16.7244C39.2026 16.6035 38.9373 16.4262 38.714 16.2025C38.4906 15.9788 38.3137 15.7132 38.1933 15.421C38.0729 15.1287 38.0114 14.8156 38.0124 14.4995V9.49166C37.9659 8.91475 37.7039 8.3765 37.2786 7.98403C36.8532 7.59155 36.2956 7.37363 35.7168 7.37363C35.1381 7.37363 34.5805 7.59155 34.1551 7.98403C33.7298 8.3765 33.4678 8.91475 33.4213 9.49166V14.4734C33.4204 15.1134 33.1678 15.7272 32.7181 16.1825C32.2684 16.6378 31.6577 16.8979 31.0178 16.9067V9.49166C31.027 8.88596 31.1555 8.28802 31.396 7.73201C31.6364 7.17601 31.9841 6.67285 32.4191 6.25129C32.8542 5.82974 33.368 5.49806 33.9313 5.27523C34.4946 5.05239 35.0963 4.94276 35.702 4.95261C36.358 4.9437 37.0087 5.07142 37.6128 5.32763C38.2168 5.58384 38.7609 5.96294 39.2104 6.44082C39.6559 5.96575 40.195 5.58821 40.7938 5.33206C41.3925 5.07591 42.0379 4.94671 42.6891 4.95261C43.2971 4.94028 43.9015 5.04797 44.4678 5.26951C45.0341 5.49105 45.5511 5.8221 45.9893 6.24371C46.4275 6.66532 46.7783 7.1692 47.0215 7.72653C47.2647 8.28385 47.3956 8.88367 47.4068 9.49166V16.9067Z" fill="#787880"/>
<path d="M55.2199 16.8808C54.6211 16.8878 54.0233 16.8279 53.4378 16.7022C52.8386 16.5294 52.3308 16.1291 52.0228 15.5868C51.7148 15.0445 51.6311 14.4033 51.7896 13.8002C51.8296 13.6539 51.8806 13.5109 51.9421 13.3723V13.35C52.6155 14.0941 53.7243 14.4662 55.2013 14.4662C57.4001 14.4662 59.1339 12.911 59.1339 10.9577C59.1339 8.9263 57.4001 7.33019 55.2013 7.33019C53.1104 7.33019 51.0418 8.47612 51.0418 11.0061V18.8192C51.031 19.4494 50.7715 20.0499 50.3199 20.4896C49.8683 20.9294 49.2612 21.1728 48.6309 21.1668V11.0135C48.6309 7.50878 51.3915 4.93045 55.2013 4.93045C56.8535 4.92513 58.4472 5.54137 59.6659 6.65678C60.2556 7.20839 60.7252 7.8757 61.0453 8.61701C61.3654 9.35832 61.5291 10.1577 61.5262 10.9652C61.556 14.2727 58.7805 16.8808 55.2199 16.8808Z" fill="#787880"/>
<path d="M72.379 2.6721H67.2335V16.9068H67.1219C66.4995 16.8883 65.9095 16.6253 65.4798 16.1747C65.0501 15.724 64.8153 15.1222 64.8264 14.4997V2.6721H59.666C59.0404 2.6662 58.4425 2.41277 58.0033 1.96723C57.564 1.5217 57.3191 0.92033 57.322 0.294678H74.7564C74.7555 0.924906 74.5047 1.52904 74.059 1.97468C73.6134 2.42032 73.0093 2.67111 72.379 2.6721Z" fill="#787880"/>
<path d="M92.9722 15.3963L91.696 12.6506H83.1574L81.8925 15.4707C81.2934 16.5869 79.7122 16.9403 78.4956 16.9403L85.4604 1.68617C85.6071 1.29389 85.8666 0.953825 86.2063 0.708842C86.546 0.463859 86.9506 0.324929 87.3691 0.30957C87.7898 0.32518 88.1967 0.463944 88.5393 0.708652C88.8819 0.95336 89.1451 1.29325 89.2963 1.68617L96.183 16.7729C94.8845 16.8808 93.4782 16.4939 92.9722 15.3963ZM87.6332 2.78L84.2178 10.288H90.6692L87.2314 2.75024L87.6332 2.78Z" fill="#787880"/>
<path d="M14.4357 4.778C13.7503 4.05866 12.926 3.48595 12.0127 3.09456C11.0995 2.70317 10.1163 2.50125 9.12274 2.50103C5.40221 2.50103 2.35509 5.20586 2.35509 8.53573C2.35509 11.8656 5.39105 14.6002 9.12274 14.6002C10.8581 14.5895 12.5345 13.9692 13.859 12.8478C14.2897 12.5011 14.8286 12.3167 15.3815 12.3269C15.9344 12.3371 16.4661 12.5413 16.8838 12.9036C16.2123 13.9332 15.3233 14.8032 14.2794 15.4522C12.7358 16.432 10.9436 16.9484 9.1153 16.9404C4.0777 16.9404 0 13.1752 0 8.54317C0 3.91111 4.09258 0.149658 9.1153 0.149658C12.6944 0.149658 15.9573 2.10294 17.4084 5.10912C16.9528 5.41172 16.4053 5.54436 15.8618 5.48382C15.3183 5.42328 14.8134 5.17341 14.4357 4.778Z" fill="#787880"/>
<path d="M97.0908 15.9915C96.8708 15.9678 96.6623 15.8809 96.4906 15.7413C96.3189 15.6017 96.1913 15.4154 96.1232 15.2049C96.0551 14.9943 96.0495 14.7686 96.1069 14.5549C96.1643 14.3412 96.2824 14.1486 96.4468 14.0006C96.6113 13.8525 96.8151 13.7553 97.0336 13.7205C97.2522 13.6858 97.4761 13.715 97.6784 13.8048C97.8806 13.8946 98.0526 14.041 98.1734 14.2263C98.2943 14.4117 98.3589 14.6281 98.3595 14.8493C98.3412 15.1685 98.1977 15.4675 97.9601 15.6814C97.7225 15.8953 97.4101 16.0068 97.0908 15.9915ZM97.0908 13.975C96.9669 13.961 96.8415 13.9734 96.7227 14.0112C96.6039 14.0491 96.4945 14.1116 96.4015 14.1946C96.3086 14.2777 96.2342 14.3794 96.1833 14.4932C96.1323 14.607 96.106 14.7303 96.106 14.8549C96.106 14.9796 96.1323 15.1028 96.1833 15.2166C96.2342 15.3304 96.3086 15.4322 96.4015 15.5152C96.4945 15.5983 96.6039 15.6608 96.7227 15.6986C96.8415 15.7365 96.9669 15.7488 97.0908 15.7348C97.217 15.7532 97.3458 15.7443 97.4683 15.7085C97.5908 15.6727 97.7042 15.611 97.8007 15.5275C97.8972 15.444 97.9746 15.3408 98.0277 15.2247C98.0808 15.1087 98.1082 14.9825 98.1082 14.8549C98.1082 14.7273 98.0808 14.6012 98.0277 14.4851C97.9746 14.3691 97.8972 14.2658 97.8007 14.1823C97.7042 14.0989 97.5908 14.0371 97.4683 14.0014C97.3458 13.9656 97.217 13.9566 97.0908 13.975ZM97.5521 14.9572C97.5188 14.9797 97.4825 14.9973 97.4442 15.0093L97.7605 15.3814L97.7121 15.4186C97.664 15.46 97.6016 15.4809 97.5382 15.4768C97.4749 15.4726 97.4157 15.4437 97.3735 15.3963C97.1131 15.0763 97.0833 15.0465 97.0833 15.0465H96.7894V14.9535C96.7981 14.8959 96.8266 14.8432 96.8701 14.8044C96.9136 14.7657 96.9693 14.7434 97.0275 14.7414H97.1763C97.2603 14.7476 97.3442 14.7295 97.4182 14.6894C97.4628 14.6894 97.4703 14.6373 97.4703 14.5889C97.4703 14.5405 97.4703 14.455 97.1763 14.455H96.7596V15.24C96.7597 15.2717 96.7533 15.3032 96.7408 15.3324C96.7283 15.3615 96.7101 15.3879 96.6871 15.4098C96.6641 15.4317 96.637 15.4488 96.6072 15.4599C96.5775 15.471 96.5458 15.4759 96.5141 15.4744H96.4583V14.3582C96.4636 14.2989 96.4904 14.2436 96.5335 14.2025C96.5766 14.1615 96.6332 14.1375 96.6927 14.135H97.1615C97.7084 14.135 97.7605 14.4475 97.7605 14.574C97.7658 14.6511 97.7491 14.7281 97.7122 14.796C97.6753 14.8639 97.6197 14.9199 97.5521 14.9572Z" fill="#787880"/>
<path d="M75.5229 0.298392V14.5778C75.5395 15.2038 75.8009 15.7984 76.2509 16.2339C76.701 16.6693 77.3039 16.9109 77.9301 16.9068V2.62744C77.9136 2.00141 77.6522 1.40682 77.2021 0.971358C76.7521 0.535894 76.1492 0.294277 75.5229 0.298392Z" fill="#787880"/>
</svg>
