<svg width="125" height="30" viewBox="0 0 125 30" fill="none" xmlns="http://www.w3.org/2000/svg">
<path d="M26.3627 17.2612C28.8944 17.2612 32.5575 16.7391 32.5575 13.7277C32.565 13.4953 32.544 13.2628 32.4947 13.0356L30.987 6.48658C30.6389 5.04565 30.3333 4.39196 27.8036 3.1271C25.8405 2.1233 21.5643 0.46582 20.2994 0.46582C19.1216 0.46582 18.7795 1.98366 17.375 1.98366C16.0231 1.98366 15.0193 0.85034 13.7545 0.85034C12.5402 0.85034 11.7489 1.67807 11.1377 3.38007C11.1377 3.38007 9.43572 8.18049 9.21715 8.87667C9.18241 9.00452 9.1674 9.13691 9.17263 9.26929C9.17263 11.1352 16.519 17.2531 26.3627 17.2531M32.946 14.9501C33.2962 16.6075 33.2962 16.7816 33.2962 17.0001C33.2962 19.8334 30.1107 21.4059 25.9235 21.4059C16.4603 21.412 8.17085 15.8668 8.17085 12.2018C8.17031 11.6916 8.27431 11.1867 8.47645 10.7183C5.07244 10.8883 0.666656 11.4955 0.666656 15.3852C0.666656 21.756 15.7621 29.6083 27.7146 29.6083C36.8783 29.6083 39.1894 25.4636 39.1894 22.1912C39.1894 19.6169 36.9633 16.6946 32.9501 14.9501" fill="#787880"/>
<path d="M117.892 19.1453C117.892 21.5515 119.339 22.7213 121.978 22.7213C122.791 22.7011 123.598 22.587 124.385 22.3813V19.5905C123.882 19.7498 123.358 19.829 122.83 19.8253C121.744 19.8253 121.341 19.4853 121.341 18.4632V14.187H124.49V11.3132H121.341V7.67039L117.901 8.41515V11.3132H115.616V14.187H117.892V19.1453ZM107.166 19.21C107.166 18.4653 107.913 18.103 109.04 18.103C109.729 18.107 110.416 18.1926 111.084 18.358V19.805C110.425 20.165 109.684 20.3484 108.933 20.3373C107.828 20.3373 107.166 19.9123 107.166 19.21ZM108.219 22.7638C109.433 22.7638 110.413 22.5088 111.327 21.8915V22.5736H114.731V15.3567C114.731 12.6125 112.882 11.1068 109.795 11.1068C108.071 11.1068 106.367 11.5115 104.533 12.3413L105.768 14.8751C107.087 14.3206 108.196 13.9806 109.174 13.9806C110.591 13.9806 111.323 14.533 111.323 15.6623V16.2148C110.489 15.9989 109.631 15.8914 108.769 15.8951C105.873 15.8951 104.129 17.1093 104.129 19.2809C104.129 21.2601 105.703 22.7699 108.215 22.7699L108.219 22.7638ZM89.5068 22.5796H93.1678V16.741H99.2979V22.5736H102.969V7.67444H99.3121V13.3997H93.182V7.67444H89.521L89.5068 22.5796ZM75.571 16.9333C75.571 15.3142 76.848 14.0797 78.5298 14.0797C79.4048 14.062 80.2544 14.3741 80.9098 14.954V18.8903C80.5922 19.1903 80.2185 19.4245 79.81 19.5794C79.4015 19.7343 78.9664 19.8069 78.5298 19.7929C76.8703 19.7929 75.571 18.5584 75.571 16.9414V16.9333ZM80.9563 22.5816H84.3624V6.92969L80.9219 7.67444V11.9102C80.0461 11.4137 79.0549 11.1568 78.0481 11.1655C74.7716 11.1655 72.1954 13.6972 72.1954 16.9333C72.1859 17.6926 72.3279 18.4461 72.6129 19.15C72.8979 19.8538 73.3202 20.4938 73.8553 21.0326C74.3903 21.5715 75.0274 21.9983 75.7292 22.2882C76.431 22.5782 77.1836 22.7254 77.9429 22.7213C79.0286 22.7265 80.0875 22.3839 80.9644 21.7438L80.9563 22.5816ZM65.3266 13.9239C66.4114 13.9239 67.3261 14.6261 67.6884 15.7109H62.9932C63.3332 14.5917 64.1852 13.9239 65.3266 13.9239ZM59.5244 16.9596C59.5244 20.2381 62.2059 22.7921 65.6525 22.7921C67.5467 22.7921 68.931 22.2801 70.3578 21.0881L68.079 19.0643C67.5467 19.6188 66.7595 19.9163 65.8245 19.9163C65.2365 19.9329 64.6573 19.771 64.1632 19.452C63.669 19.1331 63.283 18.6719 63.0559 18.1293H71.0802V17.2733C71.0802 13.6972 68.676 11.123 65.3975 11.123C64.6268 11.1113 63.8615 11.2539 63.1467 11.5423C62.4319 11.8307 61.782 12.2592 61.2352 12.8024C60.6884 13.3456 60.2557 13.9927 59.9626 14.7056C59.6695 15.4185 59.5219 16.1827 59.5285 16.9535L59.5244 16.9596ZM53.5887 10.8032C54.8029 10.8032 55.4829 11.5682 55.4829 12.485C55.4829 13.4018 54.8029 14.1667 53.5887 14.1667H49.9681V10.8032H53.5887ZM46.303 22.5736H49.9641V17.1458H52.7508L55.5619 22.5736H59.66L56.3815 16.6135C57.2147 16.2746 57.9274 15.6942 58.428 14.9469C58.9286 14.1997 59.1942 13.3197 59.1905 12.4202C59.1905 9.7387 57.0837 7.67444 53.9287 7.67444H46.303V22.5736Z" fill="#787880"/>
</svg>
